<?xml version="1.0" encoding="UTF-8"?>
<svg width="24px" height="21px" viewBox="0 0 24 21" version="1.1" xmlns="http://www.w3.org/2000/svg" xmlns:xlink="http://www.w3.org/1999/xlink">
    <!-- Generator: Sketch 49 (51002) - http://www.bohemiancoding.com/sketch -->
    <title>Atoms/Icons/Call-API</title>
    <desc>Created with Sketch.</desc>
    <defs></defs>
    <g id="Components" stroke="none" stroke-width="1" fill="none" fill-rule="evenodd">
        <g id="Atoms" transform="translate(-903.000000, -1413.000000)">
            <g id="Atoms/Icons/Call-API" transform="translate(900.000000, 1409.000000)">
                <g>
                    <polygon id="Shape" points="0 0 30 0 30 30 0 30"></polygon>
                    <path d="M24.8181818,4 L5.18181818,4 C3.98181818,4 3,5 3,6.22222222 L3,22.7777778 C3,24 3.98181818,25 5.18181818,25 L24.8181818,25 C26.0181818,25 27,24 27,22.7777778 L27,6.22222222 C27,5 26.0181818,4 24.8181818,4 Z M25,19 L5,19 L5,6 L25,6 L25,19 Z" id="Shape" fill="#29B899" fill-rule="nonzero" transform="translate(15.000000, 14.500000) scale(1, -1) translate(-15.000000, -14.500000) "></path>
                    <path d="M11.5751953,18.671875 L9.2265625,18.671875 L8.81640625,20 L6.98535156,20 L9.59277344,12.890625 L11.2041016,12.890625 L13.8310547,20 L11.9902344,20 L11.5751953,18.671875 Z M9.63671875,17.3486328 L11.1650391,17.3486328 L10.3984375,14.8828125 L9.63671875,17.3486328 Z M15.9125,17.5878906 L15.9125,20 L14.1986328,20 L14.1986328,12.890625 L17.0355469,12.890625 C17.5791694,12.890625 18.0601216,12.9907217 18.478418,13.190918 C18.8967143,13.3911143 19.2206043,13.6759422 19.4500977,14.0454102 C19.679591,14.4148781 19.7943359,14.833982 19.7943359,15.3027344 C19.7943359,15.9960972 19.5461288,16.5502909 19.049707,16.965332 C18.5532853,17.3803732 17.8721397,17.5878906 17.00625,17.5878906 L15.9125,17.5878906 Z M15.9125,16.2646484 L17.0355469,16.2646484 C17.3675798,16.2646484 17.6206697,16.1816415 17.7948242,16.015625 C17.9689787,15.8496085 18.0560547,15.6152359 18.0560547,15.3125 C18.0560547,14.9804671 17.9665373,14.7151703 17.7875,14.5166016 C17.6084626,14.3180329 17.3643245,14.2171224 17.0550781,14.2138672 L15.9125,14.2138672 L15.9125,16.2646484 Z M22.3835937,20 L20.6746094,20 L20.6746094,12.890625 L22.3835937,12.890625 L22.3835937,20 Z" id="API" fill="#7383BF"></path>
                </g>
            </g>
        </g>
    </g>
</svg>