<?xml version="1.0" encoding="UTF-8"?>
<svg width="22px" height="21px" viewBox="0 0 22 21" version="1.1" xmlns="http://www.w3.org/2000/svg" xmlns:xlink="http://www.w3.org/1999/xlink">
    <!-- Generator: Sketch 50.2 (55047) - http://www.bohemiancoding.com/sketch -->
    <title>Atoms/Icons/Initiate-Call-Small</title>
    <desc>Created with Sketch.</desc>
    <defs></defs>
    <g id="Panel" stroke="none" stroke-width="1" fill="none" fill-rule="evenodd">
        <g id="Icons-Exploration-2" transform="translate(-191.000000, -329.000000)">
            <g id="Atoms/Icons/Initiate-Call-Small" transform="translate(187.000000, 324.000000)">
                <g transform="translate(15.000000, 15.000000) scale(-1, 1) translate(-15.000000, -15.000000) " id="Shape">
                    <polygon points="0 0 30 0 30 30 0 30"></polygon>
                    <path d="M17.8696077,8.13900241 L25.1500894,8.13900241 C25.612221,8.13900241 25.9899953,8.51761621 25.9899953,8.98077483 C25.9899953,9.44393345 25.612221,9.82254724 25.1500894,9.82254724 L17.8696604,9.82254724 L19.7029232,11.6606008 C20.0293495,11.9877525 20.0293495,12.5244284 19.7029232,12.8515801 C19.3764969,13.1787318 18.841011,13.1787318 18.5145846,12.8515801 L15.3799138,9.71116862 C15.3589507,9.69008029 15.3393339,9.66813795 15.3210634,9.64545129 C15.2946222,9.62476497 15.2691513,9.60227448 15.2448197,9.5779799 C14.9183934,9.24960286 14.9183934,8.71415231 15.2448197,8.38577527 L18.3794906,5.24536379 C18.7059169,4.91821207 19.2414028,4.91821207 19.5678291,5.24536379 C19.8942555,5.57251552 19.8942555,6.10919138 19.5678291,6.4363431 L17.8696077,8.13900241 Z" fill="#26B99A" fill-rule="nonzero"></path>
                    <path d="M22.8888889,19.8888889 C21.5,19.8888889 20.1666667,19.6666667 18.9222222,19.2555556 C18.5333333,19.1333333 18.1,19.2222222 17.7888889,19.5222222 L15.3444444,21.9666667 C12.2,20.3666667 9.62222222,17.8 8.02222222,14.6444444 L10.4666667,12.1888889 C10.7777778,11.9 10.8666667,11.4666667 10.7444444,11.0777778 C10.3333333,9.83333333 10.1111111,8.5 10.1111111,7.11111111 C10.1111111,6.5 9.61111111,6 9,6 L5.11111111,6 C4.5,6 4,6.5 4,7.11111111 C4,17.5444444 12.4555556,26 22.8888889,26 C23.5,26 24,25.5 24,24.8888889 L24,21 C24,20.3888889 23.5,19.8888889 22.8888889,19.8888889 Z" fill="#7383BF" fill-rule="nonzero"></path>
                </g>
            </g>
        </g>
    </g>
</svg>