<svg width="30" height="30" viewBox="0 0 30 30" fill="none" xmlns="http://www.w3.org/2000/svg">
<path fill-rule="evenodd" clip-rule="evenodd" d="M19.5005 24.6C21.323 24.6 22.8002 23.1226 22.8002 21.3C22.8002 19.4774 21.323 18 19.5005 18C17.678 18 16.2002 19.4774 16.2002 21.3C16.2002 23.1226 17.678 24.6 19.5005 24.6ZM20.4714 21.1525L19.6477 20.3287L18.0002 21.9762V22.7999H18.8239L20.4714 21.1525ZM20.9269 20.697C20.9757 20.6482 21.0001 20.5888 21.0001 20.5188C21.0001 20.4502 20.9757 20.3901 20.9269 20.3386L20.4615 19.8752C20.4114 19.8251 20.3513 19.8 20.2813 19.8C20.2101 19.8 20.1506 19.8251 20.1031 19.8752L19.7744 20.202L20.5982 21.0257L20.9269 20.697Z" fill="#29B899"/>
<path d="M14.7342 21.4015C14.7342 19.1001 16.3708 17.2268 18.6397 17.2268C18.7603 17.2268 19.0828 17.2223 19.2002 17.2325C18.0685 15.5589 16.1707 14.3999 14.0178 14.3999H13.7042C10.2348 14.3999 7.2002 17.4117 7.2002 20.9292V23.9999H15.6973C15.0971 23.3599 14.7342 22.4217 14.7342 21.4015Z" fill="#7382BE"/>
<path d="M18.0001 9.5999C18.0001 11.9199 16.1196 13.7999 13.8004 13.7999C11.4806 13.7999 9.6001 11.9199 9.6001 9.5999C9.6001 7.27994 11.4806 5.3999 13.8004 5.3999C16.1196 5.3999 18.0001 7.27994 18.0001 9.5999" fill="#7382BE"/>
</svg>
