<?xml version="1.0" encoding="UTF-8"?>
<svg viewBox="0 0 10 10" version="1.1" xmlns="http://www.w3.org/2000/svg" xmlns:xlink="http://www.w3.org/1999/xlink">
    <!-- Generator: Sketch 48.2 (47327) - http://www.bohemiancoding.com/sketch -->
    <title>Atoms/Icons/Clear</title>
    <desc>Created with Sketch.</desc>
    <defs></defs>
    <g id="Atoms" stroke="none" stroke-width="1" fill="none" fill-rule="evenodd" transform="translate(-1668.000000, -1611.000000)">
        <g id="Atoms/Icons/Clear" transform="translate(1663.000000, 1606.000000)">
            <g>
                <g id="Rectangle">
                    <rect x="0" y="0" width="20" height="20"></rect>
                </g>
                <path d="M11.4016251,10 L14.7097139,13.3080889 C15.096762,13.695137 15.096762,14.3226659 14.7097139,14.7097139 C14.3226659,15.096762 13.695137,15.096762 13.3080889,14.7097139 L10,11.4016251 L6.69191112,14.7097139 C6.30486305,15.096762 5.67733413,15.096762 5.29028606,14.7097139 C4.90323798,14.3226659 4.90323798,13.695137 5.29028606,13.3080889 L8.59837494,10 L5.29028606,6.69191112 C4.90323798,6.30486305 4.90323798,5.67733413 5.29028606,5.29028606 C5.67733413,4.90323798 6.30486305,4.90323798 6.69191112,5.29028606 L10,8.59837494 L13.3080889,5.29028606 C13.695137,4.90323798 14.3226659,4.90323798 14.7097139,5.29028606 C15.096762,5.67733413 15.096762,6.30486305 14.7097139,6.69191112 L11.4016251,10 Z" id="Combined-Shape" fill="#b4b4b4"></path>
            </g>
        </g>
    </g>
</svg>
