<?xml version="1.0" encoding="UTF-8"?>
<svg viewBox="0 0 14 13" version="1.1" xmlns="http://www.w3.org/2000/svg" xmlns:xlink="http://www.w3.org/1999/xlink">
    <!-- Generator: Sketch 51.2 (57519) - http://www.bohemiancoding.com/sketch -->
    <title>Atoms/Icons/Statuses/Error</title>
    <desc>Created with Sketch.</desc>
    <defs></defs>
    <g id="Components" stroke="none" stroke-width="1" fill="none" fill-rule="evenodd">
        <g id="Atoms" transform="translate(-946.000000, -1949.000000)">
            <g id="Atoms/Icons/Statuses/Error" transform="translate(943.000000, 1946.000000)">
                <g id="Atoms/Icons/Channels/Error">
                    <rect id="Rectangle-2-Copy" x="0" y="0" width="20" height="20"></rect>
                    <rect id="Rectangle" fill="#FFFFFF" fill-rule="nonzero" x="8" y="7" width="4" height="7"></rect>
                    <path d="M10.9275218,13.4802192 L10.9275218,12.1011344 C10.9275218,12.0333895 10.9045755,11.9765331 10.8586823,11.9305634 C10.812789,11.8845937 10.7584426,11.8616091 10.6956413,11.8616091 L9.30435867,11.8616091 C9.2415574,11.8616091 9.18721096,11.8845937 9.14131773,11.9305634 C9.0954245,11.9765331 9.07247822,12.0333895 9.07247822,12.1011344 L9.07247822,13.4802192 C9.07247822,13.5479641 9.0954245,13.6048205 9.14131773,13.6507903 C9.18721096,13.69676 9.2415574,13.7197445 9.30435867,13.7197445 L10.6956413,13.7197445 C10.7584426,13.7197445 10.812789,13.69676 10.8586823,13.6507903 C10.9045755,13.6048205 10.9275218,13.5479641 10.9275218,13.4802192 Z M10.9130292,10.7655996 L11.043462,7.43402097 C11.043462,7.37595395 11.019308,7.32998491 10.9709994,7.29611248 C10.9081981,7.24288438 10.8502286,7.21627073 10.797089,7.21627073 L9.20291097,7.21627073 C9.14977144,7.21627073 9.09180191,7.24288438 9.02900064,7.29611248 C8.98069197,7.32998491 8.956538,7.38079279 8.956538,7.44853765 L9.07972449,10.7655996 C9.07972449,10.8139888 9.10387846,10.8539093 9.15218713,10.8853622 C9.20049579,10.9168152 9.25846532,10.9325415 9.32609746,10.9325415 L10.6666563,10.9325415 C10.7342884,10.9325415 10.7910502,10.9168152 10.8369435,10.8853622 C10.8828367,10.8539093 10.9081984,10.8139888 10.9130292,10.7655996 Z M10.8115816,3.98630887 L16.3767122,14.2060534 C16.5457926,14.5109052 16.5409618,14.8157525 16.3622197,15.1206044 C16.280095,15.260933 16.167779,15.3722265 16.0252684,15.4544881 C15.8827579,15.5367497 15.7293801,15.5778799 15.5651307,15.5778799 L4.43486934,15.5778799 C4.27061987,15.5778799 4.11724215,15.5367497 3.97473158,15.4544881 C3.83222101,15.3722265 3.71990504,15.260933 3.63778031,15.1206044 C3.45903824,14.8157525 3.45420744,14.5109052 3.62328778,14.2060534 L9.18841844,3.98630887 C9.27054318,3.8363024 9.38406685,3.71775067 9.52899285,3.63065014 C9.67391885,3.54354961 9.83091966,3.5 10,3.5 C10.1690803,3.5 10.3260812,3.54354961 10.4710072,3.63065014 C10.6159332,3.71775067 10.7294568,3.8363024 10.8115816,3.98630887 Z" id="Info-Copy-6" fill="#C84714"></path>
                </g>
            </g>
        </g>
    </g>
</svg>
