<?xml version="1.0" encoding="UTF-8"?>
<svg viewBox="0 0 12 12" version="1.1" xmlns="http://www.w3.org/2000/svg" xmlns:xlink="http://www.w3.org/1999/xlink">
    <!-- Generator: Sketch 51.2 (57519) - http://www.bohemiancoding.com/sketch -->
    <title>Atoms/Icons/Statuses/Caution</title>
    <desc>Created with Sketch.</desc>
    <defs></defs>
    <g id="Components" stroke="none" stroke-width="1" fill="none" fill-rule="evenodd">
        <g id="Atoms" transform="translate(-907.000000, -1950.000000)">
            <g id="Atoms/Icons/Statuses/Caution" transform="translate(903.000000, 1946.000000)">
                <g id="Atoms/Icons/Channels/Caution">
                    <rect id="Rectangle-2" x="0" y="0" width="20" height="20"></rect>
                    <rect id="Rectangle" fill="#FFFFFF" fill-rule="nonzero" x="8" y="5" width="4" height="10"></rect>
                    <path d="M6.984375,4.8046875 C7.90625461,4.26822648 8.91145289,4 10,4 C11.0885471,4 12.0924433,4.26822648 13.0117188,4.8046875 C13.9309942,5.34114852 14.6588515,6.06900582 15.1953125,6.98828125 C15.7317735,7.90755668 16,8.91145289 16,10 C16,11.0885471 15.7317735,12.0924433 15.1953125,13.0117188 C14.6588515,13.9309942 13.9309942,14.6588515 13.0117188,15.1953125 C12.0924433,15.7317735 11.0885471,16 10,16 C8.91145289,16 7.90755668,15.7317735 6.98828125,15.1953125 C6.06900582,14.6588515 5.34114852,13.9309942 4.8046875,13.0117188 C4.26822648,12.0924433 4,11.0885471 4,10 C4,8.91145289 4.26822648,7.90755668 4.8046875,6.98828125 C5.34114852,6.06900582 6.06770375,5.34114852 6.984375,4.8046875 Z M11,13.7421875 L11,12.2578125 C11,12.1848955 10.9765627,12.1236982 10.9296875,12.0742188 C10.8828123,12.0247393 10.8255212,12 10.7578125,12 L9.2578125,12 C9.19010383,12 9.13020859,12.0260414 9.078125,12.078125 C9.02604141,12.1302086 9,12.1901038 9,12.2578125 L9,13.7421875 C9,13.8098962 9.02604141,13.8697914 9.078125,13.921875 C9.13020859,13.9739586 9.19010383,14 9.2578125,14 L10.7578125,14 C10.8255212,14 10.8828123,13.9752607 10.9296875,13.9257812 C10.9765627,13.8763018 11,13.8151045 11,13.7421875 Z M10.984375,11.0546875 L11.125,6.203125 C11.125,6.14062469 11.0989586,6.09375016 11.046875,6.0625 C10.9947914,6.02083313 10.932292,6 10.859375,6 L9.140625,6 C9.06770797,6 9.00520859,6.02083313 8.953125,6.0625 C8.90104141,6.09375016 8.875,6.14062469 8.875,6.203125 L9.0078125,11.0546875 C9.0078125,11.1067711 9.03385391,11.1523436 9.0859375,11.1914062 C9.13802109,11.2304689 9.20052047,11.25 9.2734375,11.25 L10.71875,11.25 C10.791667,11.25 10.8528643,11.2304689 10.9023438,11.1914062 C10.9518232,11.1523436 10.9791666,11.1067711 10.984375,11.0546875 Z" id="Info-Copy-5" fill="#F0AD43"></path>
                </g>
            </g>
        </g>
    </g>
</svg>
