<?xml version="1.0" encoding="UTF-8"?>
<svg viewBox="10 10 30 30" fill="none" xmlns="http://www.w3.org/2000/svg">
    <rect opacity="0.01" x="10" y="10" width="30" height="30" fill="white"/>
    <circle cx="25" cy="25" r="15" fill="#347BB2"/>
    <path fill-rule="evenodd" clip-rule="evenodd" d="M29 32.5143V30.0857C29 29.944 28.959 29.8277 28.877 29.7366C28.7949 29.6455 28.6901 29.6 28.5625 29.6H27.25V21.8286C27.25 21.6869 27.209 21.5705 27.127 21.4795C27.0449 21.3884 26.9401 21.3429 26.8125 21.3429H22.4375C22.3099 21.3429 22.2051 21.3884 22.123 21.4795C22.041 21.5705 22 21.6869 22 21.8286V24.2571C22 24.3988 22.041 24.5152 22.123 24.6062C22.2051 24.6973 22.3099 24.7429 22.4375 24.7429H23.75V29.6H22.4375C22.3099 29.6 22.2051 29.6455 22.123 29.7366C22.041 29.8277 22 29.944 22 30.0857V32.5143C22 32.656 22.041 32.7723 22.123 32.8634C22.2051 32.9545 22.3099 33 22.4375 33H28.5625C28.6901 33 28.7949 32.9545 28.877 32.8634C28.959 32.7723 29 32.656 29 32.5143ZM27.25 18.9143V16.4857C27.25 16.344 27.209 16.2277 27.127 16.1366C27.0449 16.0455 26.9401 16 26.8125 16H24.1875C24.0599 16 23.9551 16.0455 23.873 16.1366C23.791 16.2277 23.75 16.344 23.75 16.4857V18.9143C23.75 19.056 23.791 19.1723 23.873 19.2634C23.9551 19.3545 24.0599 19.4 24.1875 19.4H26.8125C26.9401 19.4 27.0449 19.3545 27.127 19.2634C27.209 19.1723 27.25 19.056 27.25 18.9143Z" fill="white"/>
</svg>
