<svg width="44" height="23" viewBox="0 0 44 23" fill="none" xmlns="http://www.w3.org/2000/svg">
<path fill-rule="evenodd" clip-rule="evenodd" d="M21.5 11.2754C24.108 11.2754 26.2222 9.199 26.2222 6.63768C26.2222 4.07636 24.108 2 21.5 2C18.892 2 16.7778 4.07636 16.7778 6.63768C16.7778 9.199 18.892 11.2754 21.5 11.2754Z" fill="#7383BF" stroke="#7383BF" stroke-width="1.5"/>
<path fill-rule="evenodd" clip-rule="evenodd" d="M30 21.942C30 16.7572 26.1944 14.058 21.5 14.058C16.8056 14.058 13 16.7572 13 21.942C16.8056 21.942 27.1667 21.942 30 21.942Z" fill="#7383BF" stroke="#7383BF" stroke-width="1.5"/>
<g opacity="0.3">
<path fill-rule="evenodd" clip-rule="evenodd" d="M35.8485 10C38.3589 10 40.3939 7.98528 40.3939 5.5C40.3939 3.01472 38.3589 1 35.8485 1C33.3381 1 31.303 3.01472 31.303 5.5C31.303 7.98528 33.3381 10 35.8485 10Z" stroke="#7383BF" stroke-width="1.5"/>
</g>
<path opacity="0.3" fill-rule="evenodd" clip-rule="evenodd" d="M8.5 10C10.9853 10 13 7.98528 13 5.5C13 3.01472 10.9853 1 8.5 1C6.01472 1 4 3.01472 4 5.5C4 7.98528 6.01472 10 8.5 10Z" stroke="#7383BF" stroke-width="1.5"/>
<path opacity="0.3" d="M13 13.1853C11.7461 12.3994 10.1866 12 8.49649 12C4.35629 12 1 14.3966 1 19C2.79129 19 6.22943 19 9.42618 19" stroke="#7383BF" stroke-width="1.5" stroke-linecap="round"/>
<path opacity="0.3" d="M31 13.1853C32.2539 12.3994 33.8134 12 35.5035 12C39.6437 12 43 14.3966 43 19C41.2087 19 37.7706 19 34.5738 19" stroke="#7383BF" stroke-width="1.5" stroke-linecap="round"/>
</svg>
