<svg width="33" height="37" viewBox="0 0 33 37" fill="none" xmlns="http://www.w3.org/2000/svg">
<path d="M27.7778 5.3H21.0433C20.3667 3.386 18.5944 2 16.5 2C14.4056 2 12.6333 3.386 11.9567 5.3H5.22222C3.45 5.3 2 6.785 2 8.6V31.7C2 33.515 3.45 35 5.22222 35H27.7778C29.55 35 31 33.515 31 31.7V8.6C31 6.785 29.55 5.3 27.7778 5.3Z" stroke="#7383BF" stroke-width="3"/>
<path fill-rule="evenodd" clip-rule="evenodd" d="M16.5 5.30005C17.3861 5.30005 18.1111 6.04255 18.1111 6.95005C18.1111 7.85755 17.3861 8.60005 16.5 8.60005C15.6139 8.60005 14.8889 7.85755 14.8889 6.95005C14.8889 6.04255 15.6139 5.30005 16.5 5.30005Z" fill="#7383BF"/>
<path fill-rule="evenodd" clip-rule="evenodd" d="M16.5 11.9C19.1744 11.9 21.3333 14.111 21.3333 16.85C21.3333 19.589 19.1744 21.8 16.5 21.8C13.8255 21.8 11.6666 19.589 11.6666 16.85C11.6666 14.111 13.8255 11.9 16.5 11.9Z" fill="#7383BF"/>
<path fill-rule="evenodd" clip-rule="evenodd" d="M26.1667 30.7H6.83337V28.39C6.83337 25.09 13.2778 23.275 16.5 23.275C19.7223 23.275 26.1667 25.09 26.1667 28.39V30.7Z" fill="#7383BF"/>
</svg>
