<svg xmlns="http://www.w3.org/2000/svg" xmlns:xlink="http://www.w3.org/1999/xlink" width="248" height="336" viewBox="0 0 248 336">
    <defs>
        <path id="a" d="M0 0h247.059v342H0z"/>
        <path id="c" d="M14.629 45.127H0V.243h29.257v44.884z"/>
        <path id="e" d="M14.629 45.127H0V.243h29.257v44.884z"/>
        <linearGradient id="g" x1="2.655%" x2="96.422%" y1="50%" y2="50%">
            <stop offset="0%" stop-color="#FFF" stop-opacity="0"/>
            <stop offset="100%" stop-color="#AAA"/>
        </linearGradient>
    </defs>
    <g fill="none" fill-rule="evenodd">
        <mask id="b" fill="#fff">
            <use xlink:href="#a"/>
        </mask>
        <use fill="#F7F7F7" xlink:href="#a"/>
        <g mask="url(#b)" opacity=".2">
            <path d="M-15 25h80v80h-80z"/>
            <g fill-rule="nonzero">
                <path fill="#26B99A" d="M15.523 75.097h26.27a2.387 2.387 0 0 1 2.378 2.383 2.387 2.387 0 0 1-2.377 2.383H15.523l5.19 5.203a2.397 2.397 0 0 1 0 3.371 2.384 2.384 0 0 1-3.365 0l-8.873-8.89a2.392 2.392 0 0 1-.167-.186 2.4 2.4 0 0 1-.216-3.566l8.874-8.89a2.384 2.384 0 0 1 3.364 0 2.397 2.397 0 0 1 0 3.372l-4.807 4.82z"/>
                <path fill="#7482BE" d="M36.048 50.817H9.778A2.387 2.387 0 0 0 7.4 53.2a2.387 2.387 0 0 0 2.378 2.383h26.27l-5.19 5.203a2.397 2.397 0 0 0 0 3.371c.925.927 2.44.927 3.365 0l8.873-8.89c.06-.059.115-.121.167-.185a2.4 2.4 0 0 0 .216-3.566l-8.874-8.89a2.384 2.384 0 0 0-3.364 0 2.397 2.397 0 0 0 0 3.371l4.807 4.82z"/>
            </g>
        </g>
        <g mask="url(#b)" opacity=".2">
            <path d="M82 279h80v80H82z"/>
            <g fill-rule="nonzero">
                <path fill="#26B99A" d="M112.523 329.097h26.27a2.387 2.387 0 0 1 2.378 2.383 2.387 2.387 0 0 1-2.377 2.383h-26.271l5.19 5.203a2.397 2.397 0 0 1 0 3.371 2.384 2.384 0 0 1-3.365 0l-8.873-8.89a2.392 2.392 0 0 1-.167-.186 2.4 2.4 0 0 1-.216-3.566l8.874-8.89a2.384 2.384 0 0 1 3.364 0 2.397 2.397 0 0 1 0 3.372l-4.807 4.82z"/>
                <path fill="#7482BE" d="M133.048 304.817h-26.27a2.387 2.387 0 0 0-2.378 2.383 2.387 2.387 0 0 0 2.378 2.383h26.27l-5.19 5.203a2.397 2.397 0 0 0 0 3.371c.925.927 2.44.927 3.365 0l8.873-8.89c.06-.059.115-.121.167-.185a2.4 2.4 0 0 0 .216-3.566l-8.874-8.89a2.384 2.384 0 0 0-3.364 0 2.397 2.397 0 0 0 0 3.371l4.807 4.82z"/>
            </g>
        </g>
        <g mask="url(#b)" opacity=".2">
            <path d="M80 25h80v80H80z"/>
            <g transform="translate(99.2 44.2)">
                <rect width="41.6" height="18.909" fill="#7383BF" rx="1"/>
                <rect width="18.909" height="18.909" y="22.691" fill="#26B99A" rx="1"/>
                <rect width="18.909" height="18.909" x="22.691" y="22.691" fill="#26B99A" rx="1"/>
            </g>
        </g>
        <g mask="url(#b)" opacity=".2">
            <path d="M-17 282h80v80h-80z"/>
            <g transform="translate(2.2 301.2)">
                <rect width="41.6" height="18.909" fill="#7383BF" rx="1"/>
                <rect width="18.909" height="18.909" y="22.691" fill="#26B99A" rx="1"/>
                <rect width="18.909" height="18.909" x="22.691" y="22.691" fill="#26B99A" rx="1"/>
            </g>
        </g>
        <g mask="url(#b)" opacity=".2">
            <path d="M-15 118h80v80h-80z"/>
            <path fill="#29B899" fill-rule="nonzero" d="M23.484 164.316c4.194 0 7.554-3.385 7.554-7.58l.025-15.157A7.569 7.569 0 0 0 23.484 134a7.569 7.569 0 0 0-7.579 7.579v15.158a7.569 7.569 0 0 0 7.58 7.579z"/>
            <path fill="#7383BF" d="M36.874 156.737c0 7.579-6.417 12.884-13.39 12.884-6.972 0-13.39-5.305-13.39-12.884H5.8c0 8.615 6.872 15.739 15.158 16.977V182h5.053v-8.286c8.286-1.213 15.157-8.337 15.157-16.977h-4.294z"/>
        </g>
        <g mask="url(#b)" opacity=".2">
            <path d="M185 282h80v80h-80z"/>
            <path fill="#29B899" fill-rule="nonzero" d="M223.484 328.316c4.194 0 7.554-3.385 7.554-7.58l.025-15.157a7.569 7.569 0 0 0-7.579-7.579 7.569 7.569 0 0 0-7.579 7.579v15.158a7.569 7.569 0 0 0 7.58 7.579z"/>
            <path fill="#7383BF" d="M236.874 320.737c0 7.579-6.417 12.884-13.39 12.884-6.972 0-13.39-5.305-13.39-12.884H205.8c0 8.615 6.872 15.739 15.158 16.977V346h5.053v-8.286c8.286-1.213 15.157-8.337 15.157-16.977h-4.294z"/>
        </g>
        <g mask="url(#b)" opacity=".2">
            <path d="M82 206h80v80H82z"/>
            <path fill="#7383BF" fill-rule="nonzero" d="M108.764 222a4.376 4.376 0 0 0-4.364 4.364c0 2.4 1.964 4.363 4.364 4.363s4.363-1.963 4.363-4.363c0-2.4-1.963-4.364-4.363-4.364zm0 13.09a4.376 4.376 0 0 0-4.364 4.365c0 2.4 1.964 4.363 4.364 4.363s4.363-1.963 4.363-4.363c0-2.4-1.963-4.364-4.363-4.364zm0 13.092a4.376 4.376 0 0 0-4.364 4.363c0 2.4 1.964 4.364 4.364 4.364s4.363-1.964 4.363-4.364-1.963-4.363-4.363-4.363zm26.181-17.455c2.4 0 4.364-1.963 4.364-4.363 0-2.4-1.964-4.364-4.364-4.364a4.376 4.376 0 0 0-4.363 4.364c0 2.4 1.963 4.363 4.363 4.363zm-13.09 17.455a4.376 4.376 0 0 0-4.364 4.363c0 2.4 1.964 4.364 4.364 4.364s4.363-1.964 4.363-4.364-1.963-4.363-4.363-4.363zm13.09 0a4.376 4.376 0 0 0-4.363 4.363c0 2.4 1.963 4.364 4.363 4.364 2.4 0 4.364-1.964 4.364-4.364s-1.964-4.363-4.364-4.363zm0-13.091a4.376 4.376 0 0 0-4.363 4.364c0 2.4 1.963 4.363 4.363 4.363 2.4 0 4.364-1.963 4.364-4.363 0-2.4-1.964-4.364-4.364-4.364zm-13.09 0a4.376 4.376 0 0 0-4.364 4.364c0 2.4 1.964 4.363 4.364 4.363s4.363-1.963 4.363-4.363c0-2.4-1.963-4.364-4.363-4.364zm0-13.091a4.376 4.376 0 0 0-4.364 4.364c0 2.4 1.964 4.363 4.364 4.363s4.363-1.963 4.363-4.363c0-2.4-1.963-4.364-4.363-4.364z"/>
            <path fill="#29B899" d="M121.855 261.273a4.376 4.376 0 0 0-4.364 4.363c0 2.4 1.964 4.364 4.364 4.364s4.363-1.964 4.363-4.364-1.963-4.363-4.363-4.363z"/>
        </g>
        <g mask="url(#b)">
            <path d="M82 108h80v80H82z"/>
            <path stroke="#9CA0AE" d="M103.247 165.492v-18.766h37.522v18.766"/>
            <path stroke="#9CA0AE" stroke-linecap="square" d="M122.006 136.26v23.472"/>
            <path fill="#556080" d="M115.11 122.4h13.475v15.515H115.11z"/>
            <path fill="#7383BF" d="M115.11 157.151h13.475v15.516H115.11z"/>
            <path fill="#26B99A" d="M96.4 157.151h13.474v15.515H96.4z"/>
            <path fill="#5675D0" d="M133.822 157.151h13.473v15.516h-13.473z"/>
        </g>
        <g mask="url(#b)" opacity=".2">
            <path d="M181 208h80v80h-80z"/>
            <path fill="#7383BF" fill-rule="nonzero" d="M242.333 257.333c-3.333 0-6.533-.533-9.52-1.52a2.722 2.722 0 0 0-2.72.64l-5.866 5.867a40.12 40.12 0 0 1-17.574-17.573l5.867-5.894c.747-.693.96-1.733.667-2.666a30.294 30.294 0 0 1-1.52-9.52c0-1.467-1.2-2.667-2.667-2.667h-9.333a2.675 2.675 0 0 0-2.667 2.667c0 25.04 20.293 45.333 45.333 45.333 1.467 0 2.667-1.2 2.667-2.667V260c0-1.467-1.2-2.667-2.667-2.667z"/>
            <path fill="#29B899" d="M240.2 245.6h4.8c0-11.928-9.672-21.6-21.6-21.6v4.8c9.288 0 16.8 7.512 16.8 16.8z"/>
            <path fill="#29B899" d="M230.6 245.6h4.8c0-6.624-5.376-12-12-12v4.8a7.19 7.19 0 0 1 7.2 7.2z"/>
        </g>
        <g mask="url(#b)" opacity=".2">
            <path d="M80-46h80v80H80z"/>
            <path fill="#7383BF" fill-rule="nonzero" d="M141.333 3.333c-3.333 0-6.533-.533-9.52-1.52a2.722 2.722 0 0 0-2.72.64l-5.866 5.867a40.12 40.12 0 0 1-17.574-17.573l5.867-5.894c.747-.693.96-1.733.667-2.666a30.294 30.294 0 0 1-1.52-9.52c0-1.467-1.2-2.667-2.667-2.667h-9.333A2.675 2.675 0 0 0 96-27.333C96-2.293 116.293 18 141.333 18 142.8 18 144 16.8 144 15.333V6c0-1.467-1.2-2.667-2.667-2.667z"/>
            <path fill="#29B899" d="M139.2-8.4h4.8c0-11.928-9.672-21.6-21.6-21.6v4.8c9.288 0 16.8 7.512 16.8 16.8z"/>
            <path fill="#29B899" d="M129.6-8.4h4.8c0-6.624-5.376-12-12-12v4.8a7.19 7.19 0 0 1 7.2 7.2z"/>
        </g>
        <g mask="url(#b)" opacity=".2">
            <path d="M184 118h80v80h-80z"/>
            <path fill="#26B99A" fill-rule="nonzero" stroke="#26B99A" stroke-width="1.25" d="M236.238 139.175a.98.98 0 0 0-1.239.615.976.976 0 0 0 .61 1.238 17.052 17.052 0 0 1 11.577 16.15c0 7.3-4.643 13.794-11.553 16.153a.973.973 0 0 0-.61 1.238.98.98 0 0 0 1.24.61 19.015 19.015 0 0 0-.024-36.003"/>
            <path fill="#26B99A" fill-rule="nonzero" stroke="#26B99A" stroke-width="1.25" d="M241.932 157.176c0-4.06-2.724-7.683-6.626-8.811a.676.676 0 0 0-.84.465.677.677 0 0 0 .465.84 7.853 7.853 0 0 1 5.64 7.506c0 3.458-2.319 6.546-5.64 7.505a.68.68 0 0 0-.465.843.676.676 0 0 0 .84.465c3.902-1.129 6.626-4.754 6.626-8.813"/>
            <g transform="translate(198.4 134.977)">
                <mask id="d" fill="#fff">
                    <use xlink:href="#c"/>
                </mask>
                <path fill="#7383BF" fill-rule="nonzero" d="M13.176 34.144V10.406L24.561.767c.04-.033.082-.062.125-.09A2.958 2.958 0 0 1 27.7.634a3.051 3.051 0 0 1 1.557 2.692V42.05c0 1.134-.581 2.14-1.557 2.687a2.97 2.97 0 0 1-3.014-.043 1.602 1.602 0 0 1-.158-.114L13.176 34.144zm-1.882-1.704l-10.318.005a.99.99 0 0 1-.69-.285.982.982 0 0 1-.286-.692V12.931c0-.54.438-.977.976-.977h10.318V32.44z" mask="url(#d)"/>
            </g>
        </g>
        <g mask="url(#b)" opacity=".2">
            <path d="M-17-44h80v80h-80z"/>
            <path fill="#26B99A" fill-rule="nonzero" stroke="#26B99A" stroke-width="1.25" d="M35.238-22.825a.98.98 0 0 0-1.239.615.976.976 0 0 0 .61 1.238 17.052 17.052 0 0 1 11.577 16.15c0 7.3-4.643 13.794-11.553 16.153a.973.973 0 0 0-.61 1.238.98.98 0 0 0 1.24.61 19.015 19.015 0 0 0-.024-36.003"/>
            <path fill="#26B99A" fill-rule="nonzero" stroke="#26B99A" stroke-width="1.25" d="M40.932-4.824c0-4.06-2.724-7.683-6.626-8.811a.676.676 0 0 0-.84.465.677.677 0 0 0 .465.84 7.853 7.853 0 0 1 5.64 7.506c0 3.458-2.319 6.546-5.64 7.505a.68.68 0 0 0-.465.843.676.676 0 0 0 .84.465c3.902-1.129 6.626-4.754 6.626-8.813"/>
            <g transform="translate(-2.6 -27.023)">
                <mask id="f" fill="#fff">
                    <use xlink:href="#e"/>
                </mask>
                <path fill="#7383BF" fill-rule="nonzero" d="M13.176 34.144V10.406L24.561.767c.04-.033.082-.062.125-.09A2.958 2.958 0 0 1 27.7.634a3.051 3.051 0 0 1 1.557 2.692V42.05c0 1.134-.581 2.14-1.557 2.687a2.97 2.97 0 0 1-3.014-.043 1.602 1.602 0 0 1-.158-.114L13.176 34.144zm-1.882-1.704l-10.318.005a.99.99 0 0 1-.69-.285.982.982 0 0 1-.286-.692V12.931c0-.54.438-.977.976-.977h10.318V32.44z" mask="url(#f)"/>
            </g>
        </g>
        <g mask="url(#b)" opacity=".2">
            <path d="M-15 206h80v80h-80z"/>
            <g fill-rule="nonzero" transform="translate(2.6 223.6)">
                <path fill="#7383BF" d="M32.706 3.84H4.883C2.198 3.84 0 6.089 0 8.862v30.916C0 42.539 2.186 44.8 4.883 44.8h30.056c2.685 0 4.883-2.249 4.883-5.022V11.435a6.096 6.096 0 0 1-1.018.085c-3.436 0-6.222-2.865-6.222-6.4 0-.438.043-.866.124-1.28z"/>
                <ellipse cx="38.804" cy="5.12" fill="#26B99A" rx="4.978" ry="5.12"/>
            </g>
        </g>
        <g mask="url(#b)" opacity=".2">
            <path d="M185-48h80v80h-80z"/>
            <g fill-rule="nonzero" transform="translate(202.6 -30.4)">
                <path fill="#7383BF" d="M32.706 3.84H4.883C2.198 3.84 0 6.089 0 8.862v30.916C0 42.539 2.186 44.8 4.883 44.8h30.056c2.685 0 4.883-2.249 4.883-5.022V11.435a6.096 6.096 0 0 1-1.018.085c-3.436 0-6.222-2.865-6.222-6.4 0-.438.043-.866.124-1.28z"/>
                <ellipse cx="38.804" cy="5.12" fill="#26B99A" rx="4.978" ry="5.12"/>
            </g>
        </g>
        <g mask="url(#b)" opacity=".2">
            <path d="M182 23h80v80h-80z"/>
            <g fill-rule="nonzero">
                <path fill="#7483BE" d="M244.407 55.913l-20.73-15.783c-.944-.924-2.372-.924-3.316 0l-20.708 15.763 22.368 13.533 22.386-13.513zM222.02 72.182l21.803 13.162c.367-.31.616-.77.616-1.312v-25.33l-.033-.033-22.386 13.513z"/>
                <path fill="#29B899" d="M222.02 72.182l21.803 13.162c.367-.31.616-.77.616-1.312v-25.33l-.033-.033-22.386 13.513zM222.02 72.182L199.634 58.67l-.033.033v25.33c0 .93.688 1.683 1.539 1.683h41.76c.355 0 .665-.151.923-.371L222.02 72.182z"/>
            </g>
        </g>
        <path fill="url(#g)" d="M241 0h6v336h-6z" mask="url(#b)" opacity=".1" style="mix-blend-mode:multiply"/>
    </g>
</svg>
