<svg xmlns="http://www.w3.org/2000/svg" width="40" height="40" viewBox="0 0 40 40">
  <g fill="none" fill-rule="evenodd">
    <text fill="#B4B4B4" transform="translate(0 -933)" font-weight="300" font-family="Roboto-Light, Roboto" font-size="6">
      <tspan x="0" y="922">Cost</tspan>
    </text>
    <g transform="translate(1 4)">
      <path fill="#38BFA3" d="M27.187 15.527c.88.34 1.84.527 2.84.527 4.32 0 7.824-3.47 7.824-7.75 0-4.28-3.5-7.75-7.82-7.75-3.8 0-6.96 2.68-7.67 6.236 2.61 2.114 4.41 5.212 4.84 8.737z"/>
      <ellipse cx="13.159" cy="17.714" fill="#7382BE" rx="13.159" ry="13.286"/>
      <path fill="#FFF" d="M31.28 9.754c0-.224-.063-.403-.19-.538-.13-.135-.357-.266-.685-.39-.617-.21-1.074-.45-1.37-.726-.298-.275-.447-.663-.447-1.162 0-.46.15-.838.446-1.132.297-.293.7-.466 1.212-.518v-.875h.65V5.3c.49.07.876.26 1.154.576.28.315.414.725.406 1.23l-.008.02H31.28c0-.297-.067-.526-.202-.685-.135-.16-.324-.24-.566-.24-.257 0-.442.07-.557.21-.115.14-.172.32-.172.54 0 .21.06.38.182.51s.354.26.698.406c.606.197 1.06.438 1.36.723.3.284.45.675.45 1.172 0 .475-.15.855-.445 1.14-.296.286-.7.454-1.214.506v.808h-.65v-.81c-.524-.046-.955-.22-1.292-.52-.337-.303-.5-.746-.49-1.33l.013-.025h1.163c0 .35.085.6.256.748.17.15.392.223.665.223.26 0 .46-.065.6-.196.13-.13.2-.31.2-.53zm-16.046 10.32c0-.418-.12-.753-.36-1.005-.238-.26-.663-.5-1.275-.73-1.16-.39-2.01-.84-2.56-1.36-.56-.52-.84-1.24-.84-2.17 0-.86.28-1.57.83-2.11.55-.55 1.31-.87 2.26-.97V10.1h1.21v1.66c.916.13 1.634.485 2.154 1.074.52.588.772 1.353.757 2.296l-.015.04h-2.18c0-.555-.125-.982-.377-1.28-.25-.3-.603-.447-1.056-.447-.48 0-.826.125-1.04.375-.214.25-.32.585-.32 1.008 0 .392.112.705.34.94.226.234.66.486 1.302.756 1.13.368 1.976.817 2.536 1.35.56.532.84 1.262.84 2.19 0 .885-.276 1.594-.828 2.126-.556.533-1.31.847-2.27.944v1.505h-1.21V23.13c-.98-.087-1.782-.41-2.41-.974-.63-.563-.934-1.39-.914-2.48l.024-.045h2.17c0 .66.16 1.12.476 1.4.32.28.736.42 1.245.42.5 0 .874-.12 1.124-.36s.372-.58.372-1z"/>
    </g>
  </g>
</svg>