<svg width="40" height="40" viewBox="0 0 40 40" xmlns="http://www.w3.org/2000/svg" xmlns:xlink="http://www.w3.org/1999/xlink">
  <defs>
    <path id="a" d="M10.285714 30.358974H0V.163282h20.57143v30.195692H10.285713z"/>
  </defs>
  <g fill="none" fill-rule="evenodd">
    <path d="M28.604857 7.481764c-.358286-.115692-.75.070564-.870857.41354-.12343.342973.070286.714665.42857.83282 4.868573 1.580307 8.140287 5.948717 8.140287 10.86523 0 4.91077-3.264857 9.27918-8.123143 10.86605-.358285.114873-.552857.489847-.42857.832822.096856.27241.365142.445538.649713.445538.073714 0 .14743-.012308.221143-.035282 5.413714-1.769026 9.053143-6.634667 9.053143-12.109128 0-5.480205-3.646286-10.345846-9.070286-12.11159" stroke="#26B99A" stroke-width="1.125" fill="#26B99A"/>
    <path d="M32.608125 19.59125c0-2.73159-1.915297-5.168182-4.658943-5.927402-.254417-.069175-.517793.069176-.590057.31272-.074653.24126.072264.495666.32668.565414 2.335147.647166 3.965568 2.724157 3.965568 5.049267 0 2.32682-1.630422 4.40381-3.965567 5.04926-.254417.07146-.401334.32358-.32668.56713.06032.200662.249638.33044.456875.33044.0448 0 .08899-.00686.13319-.017725 2.743648-.75922 4.658945-3.198096 4.658945-5.929114" stroke="#26B99A" stroke-width="1.125" fill="#26B99A"/>
    <g transform="translate(2 4.658)">
      <mask id="b" fill="#fff">
        <use xlink:href="#a"/>
      </mask>
      <path d="M7.875 8.041846h.104143l9.29057-7.525743c.02743-.022154.05743-.041847.08743-.060718.66-.378257 1.449428-.391385 2.119714-.028718.685714.371692 1.094572 1.047795 1.094572 1.81087V28.28882c0 .763078-.40886 1.43918-1.09458 1.80759-.32486.17641-.679717.262565-1.03457.262565-.372 0-.746576-.096-1.085147-.291282-.036857-.022154-.073714-.04841-.11057-.077128L7.962 21.824l-.087.00004V8.041845zm-1.125 0H.68657c-.378856 0-.68657.294564-.68657.65723V21.17005c0 .176413.073714.342977.20057.465233.131144.121436.301716.192.486.192L6.75 21.824547v-13.7827z" fill="#7383BF" mask="url(#b)"/>
    </g>
  </g>
</svg>