<svg xmlns="http://www.w3.org/2000/svg" width="20" height="20" viewBox="0 0 20 20">
  <path fill="#ffffff" d="M17.726222 14.302155c0 1.44471-1.152444 2.61574-2.574222 2.61574-1.421778 0-2.574667-1.17103-2.574667-2.61574 0-1.44471 1.15289-2.615742 2.574667-2.615742 1.421778 0 2.574222 1.171032 2.574222 2.615742zm-3.464418-.244163c-.06445-.064788-.150198-.100096-.23887-.100096-.087857 0-.174154.03569-.237538.100096-.130138.132238-.130138.34777.000238.479534l.447655.453742.44766.45376c.13082.134372.34558.134372.47687-.000482l1.599937-1.624386c.06336-.06508.097277-.15105.097277-.23991 0-.088857-.033916-.174828-.096768-.239388-.131893-.1333-.34617-.1333-.47688-.000483l-1.362908 1.38489-.656687-.66728zm-2.067804.278034c0-1.624 1.152444-2.94587 2.750222-2.94587.08489 0 .312-.003162.394667.004063-.79689-1.18097-2.13334-1.99884-3.64934-1.99884h-.22089c-2.44311 0-4.58 2.12529-4.58 4.60735v2.16684h5.983553c-.422666-.451617-.67822-1.11368-.67822-1.83355zm2.347022-8.326297c0 1.66238-1.326222 3.00954-2.961778 3.00954-1.636 0-2.962222-1.34716-2.962222-3.00955 0-1.662388 1.326222-3.00955 2.962222-3.00955 1.635556 0 2.961778 1.347162 2.961778 3.00955zm-7.106 1.83603c0 1.14574-.914222 2.07471-2.041778 2.07471-1.128 0-2.042222-.92897-2.042222-2.07471s.914222-2.07471 2.042222-2.07471c1.127556 0 2.041778.92896 2.041778 2.07471zm-.879466 5.70531c.11111-1.31871.408888-1.71974.879555-2.43374-.55111-.494067-1.36666-.85942-2.15955-.85942-1.72578 0-3.16444 1.42168-3.16444 3.17574v1.381032h4.44444V13.55107z" fill-rule="evenodd"/>
</svg>