<?xml version="1.0" encoding="UTF-8"?>
<svg width="18px" height="20px" viewBox="0 0 18 20" version="1.1" xmlns="http://www.w3.org/2000/svg" xmlns:xlink="http://www.w3.org/1999/xlink">
    <!-- Generator: Sketch 48.2 (47327) - http://www.bohemiancoding.com/sketch -->
    <title>Atoms/Icons/Blacklist-Small</title>
    <desc>Created with Sketch.</desc>
    <defs></defs>
    <g id="Atoms" stroke="none" stroke-width="1" fill="none" fill-rule="evenodd" transform="translate(-1209.000000, -915.000000)">
        <g id="Atoms/Icons/Blacklist-Small" transform="translate(1203.000000, 909.000000)">
            <g>
                <rect id="Rectangle-13" fill="#D8D8D8" opacity="0" x="0" y="0" width="30" height="30"></rect>
                <path d="M14.0893878,14.2132452 L11.414757,16.887876 C11.214311,17.0883221 11.214311,17.4133093 11.414757,17.6137553 C11.6152031,17.8142013 11.9401903,17.8142013 12.1406363,17.6137553 L14.8152671,14.9391245 L17.4898979,17.6137553 C17.6903439,17.8142013 18.0153311,17.8142013 18.2157771,17.6137553 C18.4162232,17.4133093 18.4162232,17.0883221 18.2157771,16.887876 L15.5411463,14.2132452 L18.2157771,11.5386144 C18.4162232,11.3381684 18.4162232,11.0131812 18.2157771,10.8127352 C18.0153311,10.6122892 17.6903439,10.6122892 17.4898979,10.8127352 L14.8152671,13.487366 L12.1406363,10.8127352 C11.9401903,10.6122892 11.6152031,10.6122892 11.414757,10.8127352 C11.214311,11.0131812 11.214311,11.3381684 11.414757,11.5386144 L14.0893878,14.2132452 Z M14.9850002,22.5591284 C10.3540925,22.5591284 6.6,18.8522413 6.6,14.2795642 C6.6,9.70688717 10.3540925,6 14.9850002,6 C19.615908,6 23.3700005,9.70688717 23.3700005,14.2795642 C23.3700005,16.6534059 22.358264,18.7939152 20.7373463,20.3035989 L15.8235003,25.0429977 L15.8237627,25.0423238 C15.6265622,25.2242021 15.3191618,25.2182392 15.129217,25.0258756 C15.036814,24.9322958 14.9850002,24.8060786 14.9850002,24.6745662 L14.9850002,22.5591284 Z" id="Combined-Shape" fill="#7D8CC4"></path>
            </g>
        </g>
    </g>
</svg>