<?xml version="1.0" encoding="UTF-8"?>
<svg width="37px" height="28px" viewBox="0 0 37 28" version="1.1" xmlns="http://www.w3.org/2000/svg" xmlns:xlink="http://www.w3.org/1999/xlink">
    <!-- Generator: Sketch 47.1 (45422) - http://www.bohemiancoding.com/sketch -->
    <title>NumLookup_Large</title>
    <desc>Created with Sketch.</desc>
    <defs></defs>
    <g id="Current" stroke="none" stroke-width="1" fill="none" fill-rule="evenodd">
        <g id="Mobile" transform="translate(-135.000000, -148.000000)">
            <g id="NumLookup_Large" transform="translate(135.000000, 148.000000)">
                <g id="Group">
                    <path d="M19.317719,19.9466667 L6.80735931,19.9466667 C6.69890819,19.9466667 6.60505767,19.9070837 6.52580492,19.8279167 C6.44655218,19.7487496 6.40692641,19.6550005 6.40692641,19.5466667 L6.40692641,17.1466667 C6.40692641,17.0383328 6.44655218,16.9445837 6.52580492,16.8654167 C6.60505767,16.7862496 6.69890819,16.7466667 6.80735931,16.7466667 L15.390513,16.7466667 C16.4308121,18.0926596 17.7738426,19.1932514 19.317719,19.9466667 Z M13.6695273,13.5466667 L6.80735931,13.5466667 C6.69890819,13.5466667 6.60505767,13.5070837 6.52580492,13.4279167 C6.44655218,13.3487496 6.40692641,13.2550005 6.40692641,13.1466667 L6.40692641,10.7466667 C6.40692641,10.6383328 6.44655218,10.5445837 6.52580492,10.4654167 C6.60505767,10.3862496 6.69890819,10.3466667 6.80735931,10.3466667 L13.0869786,10.3466667 C13.1239318,11.4629443 13.3259846,12.5374724 13.6695273,13.5466667 Z M4.10443723,23.0466667 C4.57161128,23.5133357 4.80519481,24.0799967 4.80519481,24.7466667 C4.80519481,25.4133367 4.57161128,25.9799977 4.10443723,26.4466667 C3.63726318,26.9133357 3.06998891,27.1466667 2.4025974,27.1466667 C1.7352059,27.1466667 1.16793163,26.9133357 0.700757576,26.4466667 C0.233583523,25.9799977 0,25.4133367 0,24.7466667 C0,24.0799967 0.233583523,23.5133357 0.700757576,23.0466667 C1.16793163,22.5799977 1.7352059,22.3466667 2.4025974,22.3466667 C3.06998891,22.3466667 3.63726318,22.5799977 4.10443723,23.0466667 Z M4.10443723,16.6466667 C4.57161128,17.1133357 4.80519481,17.6799967 4.80519481,18.3466667 C4.80519481,19.0133367 4.57161128,19.5799977 4.10443723,20.0466667 C3.63726318,20.5133357 3.06998891,20.7466667 2.4025974,20.7466667 C1.7352059,20.7466667 1.16793163,20.5133357 0.700757576,20.0466667 C0.233583523,19.5799977 0,19.0133367 0,18.3466667 C0,17.6799967 0.233583523,17.1133357 0.700757576,16.6466667 C1.16793163,16.1799977 1.7352059,15.9466667 2.4025974,15.9466667 C3.06998891,15.9466667 3.63726318,16.1799977 4.10443723,16.6466667 Z M22.4242424,23.5466667 L22.4242424,25.9466667 C22.4242424,26.0550005 22.3846166,26.1487496 22.3053639,26.2279167 C22.2261112,26.3070837 22.1322606,26.3466667 22.0238095,26.3466667 L6.80735931,26.3466667 C6.69890819,26.3466667 6.60505767,26.3070837 6.52580492,26.2279167 C6.44655218,26.1487496 6.40692641,26.0550005 6.40692641,25.9466667 L6.40692641,23.5466667 C6.40692641,23.4383328 6.44655218,23.3445837 6.52580492,23.2654167 C6.60505767,23.1862496 6.69890819,23.1466667 6.80735931,23.1466667 L22.0238095,23.1466667 C22.1322606,23.1466667 22.2261112,23.1862496 22.3053639,23.2654167 C22.3846166,23.3445837 22.4242424,23.4383328 22.4242424,23.5466667 Z M4.10443723,10.2466667 C4.57161128,10.7133357 4.80519481,11.2799967 4.80519481,11.9466667 C4.80519481,12.6133367 4.57161128,13.1799977 4.10443723,13.6466667 C3.63726318,14.1133357 3.06998891,14.3466667 2.4025974,14.3466667 C1.7352059,14.3466667 1.16793163,14.1133357 0.700757576,13.6466667 C0.233583523,13.1799977 0,12.6133367 0,11.9466667 C0,11.2799967 0.233583523,10.7133357 0.700757576,10.2466667 C1.16793163,9.77999767 1.7352059,9.54666667 2.4025974,9.54666667 C3.06998891,9.54666667 3.63726318,9.77999767 4.10443723,10.2466667 Z" id="Combined-Shape" fill="#7383BF"></path>
                    <path d="M28.9092464,13.6585034 C30.0104424,12.5584979 30.5610321,11.2376778 30.5610321,9.69600342 C30.5610321,8.15432904 30.012528,6.83559223 28.9155032,5.73975342 C27.8184784,4.64391461 26.4983144,4.09600342 24.9549715,4.09600342 C23.4116287,4.09600342 22.0914646,4.64391461 20.9944399,5.73975342 C19.8974151,6.83559223 19.3489109,8.15432904 19.3489109,9.69600342 C19.3489109,11.2376778 19.8974151,12.5564146 20.9944399,13.6522534 C22.0914646,14.7480922 23.4116287,15.2960034 24.9549715,15.2960034 C26.4983144,15.2960034 27.8163928,14.7501755 28.9092464,13.6585034 Z M36.9679585,20.0960034 C36.9679585,20.5293389 36.8094554,20.9043352 36.4924445,21.2210034 C36.1754335,21.5376717 35.8000314,21.6960034 35.3662269,21.6960034 C34.9157377,21.6960034 34.5403356,21.5376717 34.2400094,21.2210034 L29.9478692,16.9460034 C28.4545807,17.9793419 26.7902981,18.4960034 24.9549715,18.4960034 C23.7620092,18.4960034 22.621204,18.2647557 21.5325216,17.8022534 C20.4438392,17.3397511 19.5053339,16.7147574 18.7169777,15.9272534 C17.9286215,15.1397495 17.3029514,14.2022589 16.8399485,13.1147534 C16.3769457,12.027248 16.1454477,10.887676 16.1454477,9.69600342 C16.1454477,8.50433079 16.3769457,7.36475886 16.8399485,6.27725342 C17.3029514,5.18974798 17.9286215,4.25225736 18.7169777,3.46475342 C19.5053339,2.67724948 20.4438392,2.05225573 21.5325216,1.58975342 C22.621204,1.12725111 23.7620092,0.896003418 24.9549715,0.896003418 C26.1479338,0.896003418 27.2887391,1.12725111 28.3774215,1.58975342 C29.4661038,2.05225573 30.4046091,2.67724948 31.1929653,3.46475342 C31.9813215,4.25225736 32.6069917,5.18974798 33.0699945,6.27725342 C33.5329974,7.36475886 33.7644953,8.50433079 33.7644953,9.69600342 C33.7644953,11.5293459 33.2472747,13.1918293 32.2128178,14.6835034 L36.504958,18.9710034 C36.8136266,19.2793383 36.9679585,19.6543345 36.9679585,20.0960034 Z" id="" fill="#29B899"></path>
                </g>
            </g>
        </g>
    </g>
</svg>