<?xml version="1.0" encoding="UTF-8"?>
<svg width="12px" height="12px" viewBox="0 0 12 12" version="1.1" xmlns="http://www.w3.org/2000/svg" xmlns:xlink="http://www.w3.org/1999/xlink">
    <!-- Generator: Sketch 48.2 (47327) - http://www.bohemiancoding.com/sketch -->
    <title>Atoms/Icons/Channels/Line-Small</title>
    <desc>Created with Sketch.</desc>
    <defs></defs>
    <g id="Atoms" stroke="none" stroke-width="1" fill="none" fill-rule="evenodd" transform="translate(-1147.000000, -1610.000000)">
        <g id="Atoms/Icons/Channels/Line-Small" transform="translate(1143.000000, 1606.000000)">
            <g>
                <rect id="Rectangle-6" x="0" y="0" width="20" height="20"></rect>
                <g id="Line-Icon" transform="translate(4.000000, 4.000000)" fill-rule="nonzero">
                    <g id="LINE_Small">
                        <path d="M9.81666667,0.0583333333 L2.20833333,0.0583333333 C1.01666667,0.0583333333 0.0333333333,1.025 0.0333333333,2.21666667 L0.0333333333,9.81666667 C0.0333333333,11.0083333 1,11.9916667 2.19166667,11.9916667 L9.79166667,11.9916667 C10.9833333,11.9916667 11.9666667,11.025 11.9666667,9.83333333 L11.9666667,2.23333333 C11.975,1.04166667 11.0083333,0.0583333333 9.81666667,0.0583333333" id="Shape" fill="#545454"></path>
                        <path d="M10.3333333,5.5 C10.3333333,3.55833333 8.38333333,1.975 5.98333333,1.975 C3.58333333,1.975 1.63333333,3.55833333 1.63333333,5.5 C1.63333333,7.24166667 3.18333333,8.70833333 5.26666667,8.98333333 C5.40833333,9.01666667 5.6,9.075 5.65,9.2 C5.69166667,9.30833333 5.675,9.48333333 5.66666667,9.59166667 C5.66666667,9.59166667 5.61666667,9.9 5.60833333,9.96666667 C5.59166667,10.075 5.525,10.4 5.98333333,10.2 C6.45,10.0083333 8.48333333,8.725 9.4,7.675 C10.0333333,6.98333333 10.3333333,6.28333333 10.3333333,5.5" id="Shape" fill="#FFFFFF"></path>
                    </g>
                </g>
            </g>
        </g>
    </g>
</svg>