<?xml version="1.0" encoding="UTF-8"?>
<svg width="42px" height="20px" viewBox="0 0 42 20" version="1.1" xmlns="http://www.w3.org/2000/svg" xmlns:xlink="http://www.w3.org/1999/xlink">
    <!-- Generator: Sketch 46.2 (44496) - http://www.bohemiancoding.com/sketch -->
    <title>Icons-Message_Large</title>
    <desc>Created with Sketch.</desc>
    <defs></defs>
    <g id="Symbols" stroke="none" stroke-width="1" fill="none" fill-rule="evenodd">
        <g id="Icons-Message_Large">
            <g>
                <g id="Group-4" transform="translate(0.000000, 6.000000)" fill-rule="nonzero" fill="#7383BF">
                    <path d="M7,11.5294118 C9.50152504,11.5294118 11.5294118,9.50152504 11.5294118,7 C11.5294118,4.49847496 9.50152504,2.47058824 7,2.47058824 C4.49847496,2.47058824 2.47058824,4.49847496 2.47058824,7 C2.47058824,9.50152504 4.49847496,11.5294118 7,11.5294118 Z M7,14 C3.13400675,14 0,10.8659932 0,7 C0,3.13400675 3.13400675,0 7,0 C10.8659932,0 14,3.13400675 14,7 C14,10.8659932 10.8659932,14 7,14 Z" id="Oval-2"></path>
                    <path d="M28.4117647,11.5294118 C30.9132897,11.5294118 32.9411765,9.50152504 32.9411765,7 C32.9411765,4.49847496 30.9132897,2.47058824 28.4117647,2.47058824 C25.9102397,2.47058824 23.8823529,4.49847496 23.8823529,7 C23.8823529,9.50152504 25.9102397,11.5294118 28.4117647,11.5294118 Z M28.4117647,14 C24.5457715,14 21.4117647,10.8659932 21.4117647,7 C21.4117647,3.13400675 24.5457715,0 28.4117647,0 C32.277758,0 35.4117647,3.13400675 35.4117647,7 C35.4117647,10.8659932 32.277758,14 28.4117647,14 Z" id="Oval-2-Copy"></path>
                    <polygon id="Line-2" points="28.8235294 11.5294118 6.58823529 11.5294118 6.58823529 14 28.8235294 14"></polygon>
                </g>
                <circle id="Oval-4" fill="#FFFFFF" cx="35" cy="7" r="7"></circle>
                <circle id="Oval-4" fill="#26B99A" cx="35" cy="7" r="5"></circle>
            </g>
        </g>
    </g>
</svg>