<?xml version="1.0" encoding="UTF-8"?>
<svg width="28px" height="30px" viewBox="0 0 28 30" version="1.1" xmlns="http://www.w3.org/2000/svg" xmlns:xlink="http://www.w3.org/1999/xlink">
    <!-- Generator: Sketch 50.2 (55047) - http://www.bohemiancoding.com/sketch -->
    <title>Atoms/Icons/Event-Large</title>
    <desc>Created with Sketch.</desc>
    <defs/>
    <g id="Panel" stroke="none" stroke-width="1" fill="none" fill-rule="evenodd">
        <g id="Icons-Exploration-2" transform="translate(-741.000000, -497.000000)">
            <g id="Atoms/Icons/Event-Large" transform="translate(730.000000, 487.000000)">
                <g id="Shape">
                    <polygon points="0 0 50 0 50 50 0 50"/>
                    <path d="M36.2,12.7210031 L34.8,12.7210031 L34.8,11 C34.8,10.4477153 34.3522847,10 33.8,10 L33,10 C32.4477153,10 32,10.4477153 32,11 L32,12.7210031 L18,12.7210031 L18,11 C18,10.4477153 17.5522847,10 17,10 L16.2,10 C15.6477153,10 15.2,10.4477153 15.2,11 L15.2,12.7210031 L13.8,12.7210031 C12.26,12.7210031 11,13.9454545 11,15.4420063 L11,37.2100313 C11,38.7065831 12.26,39.9310345 13.8,39.9310345 L36.2,39.9310345 C37.74,39.9310345 39,38.7065831 39,37.2100313 L39,15.4420063 C39,13.9454545 37.74,12.7210031 36.2,12.7210031 Z M36.2,37.2100313 L13.8,37.2100313 L13.8,19.523511 L36.2,19.523511 L36.2,37.2100313 Z" fill="#7383BF" fill-rule="nonzero"/>
                </g>
            </g>
        </g>
    </g>
</svg>