<?xml version="1.0" encoding="UTF-8"?>
<svg width="35px" height="35px" viewBox="0 0 35 35" version="1.1" xmlns="http://www.w3.org/2000/svg" xmlns:xlink="http://www.w3.org/1999/xlink">
    <!-- Generator: Sketch 47 (45396) - http://www.bohemiancoding.com/sketch -->
    <title>WeChat_Large</title>
    <desc>Created with Sketch.</desc>
    <defs></defs>
    <g id="Input-States" stroke="none" stroke-width="1" fill="none" fill-rule="evenodd">
        <g id="iPad-Pro" transform="translate(-221.000000, -379.000000)" fill-rule="nonzero">
            <g id="WeChat_Large" transform="translate(221.000000, 379.000000)">
                <path d="M35,29.75 C35,32.6496333 32.6495167,35 29.75,35 L5.25,35 C2.35036667,35 0,32.6496333 0,29.75 L0,5.25 C0,2.35048333 2.35048333,0 5.25,0 L29.75,0 C32.6495167,0 35,2.35048333 35,5.25 L35,29.75 Z" id="Shape" fill="#2DC100"></path>
                <g id="Group" transform="translate(2.216667, 4.316667)" fill="#FFFFFF">
                    <path d="M21.21035,8.736 C18.3855,8.88358333 15.9290833,9.73991667 13.9347833,11.6746 C11.9198333,13.6292333 11.0000333,16.0244 11.25145,18.9935667 C10.1473167,18.8568333 9.14165,18.7063333 8.13026667,18.6211667 C7.78096667,18.5917667 7.36645,18.6335333 7.07058333,18.8004833 C6.08848333,19.35465 5.14698333,19.9803333 4.03106667,20.6778833 C4.23581667,19.7517833 4.36835,18.9408333 4.60296667,18.1608 C4.77551667,17.5875 4.6956,17.2684167 4.16745,16.8950833 C0.776416667,14.5009667 -0.652983333,10.9180167 0.416733333,7.22925 C1.40641667,3.81675 3.83681667,1.7472 7.13918333,0.668383333 C11.6466,-0.80395 16.71215,0.6979 19.453,4.27653333 C20.4429167,5.5692 21.0499333,7.02006667 21.21035,8.736 Z M8.20936667,7.5866 C8.23538333,6.91191667 7.65076667,6.30408333 6.95636667,6.28378333 C6.2454,6.2629 5.66066667,6.80621667 5.6399,7.5068 C5.6189,8.21683333 6.16198333,8.78581667 6.87808333,8.80401667 C7.588,8.82198333 8.18311667,8.27796667 8.20936667,7.5866 Z M14.9924833,6.28331667 C14.2955167,6.29615 13.7065833,6.88975 13.71895,7.56711667 C13.7316667,8.26921667 14.3094,8.81848333 15.0260833,8.80985 C15.7446333,8.80121667 16.2895833,8.24611667 16.2828167,7.5292 C16.2768667,6.82546667 15.7017,6.27036667 14.9924833,6.28331667 Z" id="Shape"></path>
                    <path d="M27.5567833,26.3468333 C26.6623,25.9485333 25.8417833,25.3509667 24.9681833,25.2597333 C24.0979667,25.16885 23.1831833,25.6708667 22.2727167,25.7639667 C19.4994333,26.0477 17.0149,25.2747833 14.9662333,23.3802333 C11.0699167,19.7764 11.62665,14.2506 16.1345333,11.2973 C20.1409833,8.67253333 26.0166667,9.54753333 28.8414,13.1895167 C31.30645,16.3675167 31.0167667,20.5861833 28.0074667,23.2559833 C27.1366667,24.0286667 26.8233,24.6645 27.3820167,25.6831167 C27.48515,25.8711833 27.4969333,26.1093 27.5567833,26.3468333 L27.5567833,26.3468333 Z M17.3748167,16.4886167 C17.9442667,16.4892 18.41315,16.0435333 18.4347333,15.4810833 C18.4574833,14.8856167 17.9785667,14.3861667 17.3822833,14.3837167 C16.79195,14.3810333 16.2974,14.8874833 16.3179333,15.4740833 C16.3373,16.03455 16.80945,16.4879167 17.3748167,16.4886167 Z M23.9386,14.38605 C23.3860667,14.3822 22.9166,14.8345167 22.8940833,15.3927667 C22.8701667,15.98975 23.33415,16.4799833 23.92495,16.4815 C24.4963833,16.4833667 24.9478833,16.0512333 24.96865,15.4826 C24.9908167,14.8842167 24.5266,14.3901333 23.9386,14.38605 L23.9386,14.38605 Z" id="Shape"></path>
                </g>
            </g>
        </g>
    </g>
</svg>