<?xml version="1.0" encoding="UTF-8"?>
<svg width="15px" height="10px" viewBox="0 0 15 10" version="1.1" xmlns="http://www.w3.org/2000/svg" xmlns:xlink="http://www.w3.org/1999/xlink">
    <!-- Generator: Sketch 51.2 (57519) - http://www.bohemiancoding.com/sketch -->
    <title>Atoms/Icons/Metrics/Seen-Rate</title>
    <desc>Created with Sketch.</desc>
    <defs/>
    <g id="Components" stroke="none" stroke-width="1" fill="none" fill-rule="evenodd">
        <g id="Atoms" transform="translate(-1792.000000, -1951.000000)">
            <g id="Atoms/Icons/Metrics/Seen-Rate" transform="translate(1789.000000, 1946.000000)">
                <g>
                    <rect id="Rectangle-8" fill-opacity="0" fill="#D8D8D8" fill-rule="nonzero" x="0" y="0" width="20" height="20"/>
                    <path d="M10.3333333,5 C7,5 4.15333333,7.07333333 3,10 C4.15333333,12.9266667 7,15 10.3333333,15 C13.6666667,15 16.5133333,12.9266667 17.6666667,10 C16.5133333,7.07333333 13.6666667,5 10.3333333,5 Z M10.3333333,13.3333333 C8.49333333,13.3333333 7,11.84 7,10 C7,8.16 8.49333333,6.66666667 10.3333333,6.66666667 C12.1733333,6.66666667 13.6666667,8.16 13.6666667,10 C13.6666667,11.84 12.1733333,13.3333333 10.3333333,13.3333333 Z M10.3333333,8 C9.22666667,8 8.33333333,8.89333333 8.33333333,10 C8.33333333,11.1066667 9.22666667,12 10.3333333,12 C11.44,12 12.3333333,11.1066667 12.3333333,10 C12.3333333,8.89333333 11.44,8 10.3333333,8 Z" id="Shape" fill="#ffffff" fill-rule="nonzero"/>
                </g>
            </g>
        </g>
    </g>
</svg>