<?xml version="1.0" encoding="UTF-8"?>
<svg width="16px" height="16px" viewBox="0 0 16 16" version="1.1" xmlns="http://www.w3.org/2000/svg" xmlns:xlink="http://www.w3.org/1999/xlink">
    <!-- Generator: Sketch 51.2 (57519) - http://www.bohemiancoding.com/sketch -->
    <title>Atoms/Icons/Metrics/Conversion-Rate</title>
    <desc>Created with Sketch.</desc>
    <defs></defs>
    <g id="Components" stroke="none" stroke-width="1" fill="none" fill-rule="evenodd">
        <g id="Atoms" transform="translate(-1469.000000, -1948.000000)">
            <g id="Atoms/Icons/Metrics/Conversion-Rate" transform="translate(1467.000000, 1946.000000)">
                <g>
                    <rect id="Rectangle-8" fill-opacity="0" fill="#D8D8D8" fill-rule="nonzero" x="0" y="0" width="20" height="20"></rect>
                    <g id="Group-7" transform="translate(3.000000, 3.000000)">
                        <path d="M7.52418564,13.9806693 C11.1453566,13.7125943 14,10.689666 14,7 C14,3.13400675 10.8659932,0 7,0 C3.3060217,0 0.280340491,2.86131996 0.0184020553,6.48851418" id="Oval-8" stroke="#ffffff" stroke-width="1.7" fill-rule="nonzero"></path>
                        <g id="Group-8" transform="translate(4.000000, 3.000000)" fill="#ffffff">
                            <path d="M3,4.47675734 L3,4.47675734 C4.65685425,4.47675734 6,5.81990309 6,7.47675734 L6,8 L-4.4408921e-15,8 L-4.4408921e-15,7.47675734 C-4.64379822e-15,5.81990309 1.34314575,4.47675734 3,4.47675734 Z" id="Rectangle-3"></path>
                            <path d="M5,2 C5,3.1047419 4.10450897,4 3.00015005,4 C1.89549103,4 1,3.1047419 1,2 C1,0.895258103 1.89549103,0 3.00015005,0 C4.10450897,0 5,0.895258103 5,2" id="Fill-9"></path>
                        </g>
                        <path d="M0.0179669653,7.50542458 C0.265397029,10.9732855 3.03897385,13.7424753 6.50873231,13.9830288" id="Oval-8" stroke="#ffffff" stroke-width="1.7" fill-rule="nonzero"></path>
                    </g>
                </g>
            </g>
        </g>
    </g>
</svg>