<?xml version="1.0" encoding="UTF-8"?>
<svg width="21px" height="22px" viewBox="0 0 21 22" version="1.1" xmlns="http://www.w3.org/2000/svg" xmlns:xlink="http://www.w3.org/1999/xlink">
    <!-- Generator: Sketch 50.2 (55047) - http://www.bohemiancoding.com/sketch -->
    <title>Atoms/Icons/Inbound-Message-Small</title>
    <desc>Created with Sketch.</desc>
    <defs></defs>
    <g id="Panel" stroke="none" stroke-width="1" fill="none" fill-rule="evenodd">
        <g id="Icons-Exploration-2" transform="translate(-187.000000, -502.000000)">
            <g id="Atoms/Icons/Inbound-Message-Small" transform="translate(182.000000, 498.000000)">
                <g transform="translate(15.000000, 15.000000) scale(-1, 1) translate(-15.000000, -15.000000) " id="Shape">
                    <polygon points="0 0 30 0 30 30 0 30"></polygon>
                    <path d="M22.0781084,4 L12.0130181,4 C10.9058581,4 10,4.9 10,6 L10,10.2865497 L12.0130181,10.2865497 L12.0130181,7 L22.0781084,7 L22.0781084,23 L12.0130181,23 L12.0130181,19.912216 L10,19.912216 L10,24 C10,25.1 10.9058581,26 12.0130181,26 L22.0781084,26 C23.1852684,26 24.0911265,25.1 24.0911265,24 L24.0911265,6 C24.0911265,4.9 23.1852684,4 22.0781084,4 Z" fill="#7383BF" fill-rule="nonzero"></path>
                    <path d="M6.86960773,14.1390024 L14.1500894,14.1390024 C14.612221,14.1390024 14.9899953,14.5176162 14.9899953,14.9807748 C14.9899953,15.4439334 14.612221,15.8225472 14.1500894,15.8225472 L6.86966042,15.8225472 L8.70292321,17.6606008 C9.02934953,17.9877525 9.02934953,18.5244284 8.70292321,18.8515801 C8.37649686,19.1787318 7.84101097,19.1787318 7.51458464,18.8515801 L4.37991379,15.7111686 C4.35895074,15.6900803 4.33933392,15.6681379 4.32106335,15.6454513 C4.29462222,15.624765 4.26915128,15.6022745 4.24481975,15.5779799 C3.91839342,15.2496029 3.91839342,14.7141523 4.24481975,14.3857753 L7.3794906,11.2453638 C7.70591693,10.9182121 8.24140282,10.9182121 8.56782914,11.2453638 C8.89425551,11.5725155 8.89425551,12.1091914 8.56782914,12.4363431 L6.86960773,14.1390024 Z" fill="#26B99A" fill-rule="nonzero"></path>
                </g>
            </g>
        </g>
    </g>
</svg>