<svg width="30" height="30" viewBox="0 0 30 30" fill="none" xmlns="http://www.w3.org/2000/svg">
<path fill-rule="evenodd" clip-rule="evenodd" d="M12.7074 8.97417H21.4004V6.56396H11.9172C11.0443 6.56396 10.3366 7.28336 10.3366 8.17077V13.7946H1.18541C0.530724 13.7946 0 14.3341 0 14.9997C0 15.6653 0.530724 16.2048 1.18541 16.2048H10.3366V21.8286C10.3366 22.716 11.0443 23.4354 11.9172 23.4354H21.4004V21.0252H12.7074V8.97417Z" fill="#38BFA3"/>
<path d="M23.1575 4.04293L29.7816 7.40998C30.0728 7.55801 30.0728 7.98053 29.7816 8.12856L23.1575 11.4956C22.8948 11.6292 22.5857 11.4349 22.5857 11.1363V4.40222C22.5857 4.1036 22.8948 3.90938 23.1575 4.04293Z" fill="#808FC4"/>
<path d="M23.1575 18.5046L29.7816 21.8716C30.0728 22.0197 30.0728 22.4422 29.7816 22.5902L23.1575 25.9573C22.8948 26.0908 22.5857 25.8966 22.5857 25.598V18.8639C22.5857 18.5653 22.8948 18.3711 23.1575 18.5046Z" fill="#808FC4"/>
</svg>
