<?xml version="1.0" encoding="UTF-8"?>
<svg width="38px" height="32px" viewBox="0 0 38 32" version="1.1" xmlns="http://www.w3.org/2000/svg" xmlns:xlink="http://www.w3.org/1999/xlink">
    <!-- Generator: Sketch 46.2 (44496) - http://www.bohemiancoding.com/sketch -->
    <title>Icons-Users</title>
    <desc>Created with Sketch.</desc>
    <defs></defs>
    <g id="Symbols" stroke="none" stroke-width="1" fill="none" fill-rule="evenodd">
        <g id="Icons-Users">
            <g>
                <path d="M36.6534444,25.0257992 C36.6534444,28.2247992 34.0604444,30.8177992 30.8614444,30.8177992 C27.6624444,30.8177992 25.0684444,28.2247992 25.0684444,25.0257992 C25.0684444,21.8267992 27.6624444,19.2337992 30.8614444,19.2337992 C34.0604444,19.2337992 36.6534444,21.8267992 36.6534444,25.0257992" id="Fill-1" stroke="#FFFFFF" fill="#29B899"></path>
                <path d="M34.4120444,23.4272992 C34.4120444,23.5492992 34.3660444,23.6712992 34.2740444,23.7642992 L30.6730444,27.3622992 C30.4880444,27.5492992 30.1870444,27.5492992 30.0020444,27.3622992 C29.9940444,27.3542992 27.9870444,25.3522992 27.9870444,25.3522992 C27.8020444,25.1682992 27.8020444,24.8642992 27.9870444,24.6792992 C28.0790444,24.5872992 28.2020444,24.5402992 28.3210444,24.5402992 C28.4430444,24.5402992 28.5650444,24.5872992 28.6580444,24.6792992 L30.3360444,26.3572992 L33.6030444,23.0902992 C33.7870444,22.9062992 34.0890444,22.9062992 34.2740444,23.0902992 C34.3660444,23.1832992 34.4120444,23.3052992 34.4120444,23.4272992" id="Fill-3" stroke="#FFFFFF" fill="#F2F2F2"></path>
                <path d="M34.4120444,23.4272992 C34.4120444,23.5492992 34.3660444,23.6712992 34.2740444,23.7642992 L30.6730444,27.3622992 C30.4880444,27.5492992 30.1870444,27.5492992 30.0020444,27.3622992 C29.9940444,27.3542992 27.9870444,25.3522992 27.9870444,25.3522992 C27.8020444,25.1682992 27.8020444,24.8642992 27.9870444,24.6792992 C28.0790444,24.5872992 28.2020444,24.5402992 28.3210444,24.5402992 C28.4430444,24.5402992 28.5650444,24.5872992 28.6580444,24.6792992 L30.3360444,26.3572992 L33.6030444,23.0902992 C33.7870444,22.9062992 34.0890444,22.9062992 34.2740444,23.0902992 C34.3660444,23.1832992 34.4120444,23.3052992 34.4120444,23.4272992 Z" id="Stroke-5"></path>
                <path d="M24.2059444,25.1008 C24.2059444,21.5048 26.7989444,18.5778 30.3939444,18.5778 C30.5849444,18.5778 31.0959444,18.5708 31.2819444,18.5868 C29.4889444,15.9718 26.4819444,14.1608 23.0709444,14.1608 L22.5739444,14.1608 C17.0769444,14.1608 12.2689444,18.8668 12.2689444,24.3628 L12.2689444,29.1608 L25.7319444,29.1608 C24.7809444,28.1608 24.2059444,26.6948 24.2059444,25.1008" id="Fill-7" fill="#7382BE"></path>
                <path d="M29.4867444,6.664 C29.4867444,10.345 26.5027444,13.328 22.8227444,13.328 C19.1417444,13.328 16.1577444,10.345 16.1577444,6.664 C16.1577444,2.983 19.1417444,0 22.8227444,0 C26.5027444,0 29.4867444,2.983 29.4867444,6.664" id="Fill-9" fill="#7382BE"></path>
                <path d="M12.4982444,10.7295 C12.4982444,13.2665 10.4412444,15.3235 7.90424444,15.3235 C5.36624444,15.3235 3.30924444,13.2665 3.30924444,10.7295 C3.30924444,8.1925 5.36624444,6.1355 7.90424444,6.1355 C10.4412444,6.1355 12.4982444,8.1925 12.4982444,10.7295" id="Fill-11" fill="#7382BE"></path>
                <path d="M10.5194444,23.3627 C10.7694444,20.4427 11.4394444,19.5547 12.4984444,17.9737 C11.2584444,16.8797 9.42344444,16.0707 7.63944444,16.0707 C3.75644444,16.0707 0.519444444,19.2187 0.519444444,23.1027 L0.519444444,26.1607 L10.5194444,26.1607 L10.5194444,23.3627 Z" id="Fill-13" fill="#7382BE"></path>
            </g>
        </g>
    </g>
</svg>