<svg width="52" height="52" xmlns="http://www.w3.org/2000/svg" xmlns:xlink="http://www.w3.org/1999/xlink"><defs><filter x="-24%" y="-24%" width="148%" height="148%" filterUnits="objectBoundingBox" id="a"><feOffset dy="2" in="SourceAlpha" result="shadowOffsetOuter1"/><feGaussianBlur stdDeviation="2" in="shadowOffsetOuter1" result="shadowBlurOuter1"/><feColorMatrix values="0 0 0 0 0 0 0 0 0 0 0 0 0 0 0 0 0 0 0.05 0" in="shadowBlurOuter1" result="shadowMatrixOuter1"/><feMerge><feMergeNode in="shadowMatrixOuter1"/><feMergeNode in="SourceGraphic"/></feMerge></filter><circle id="b" cx="25" cy="25" r="25"/></defs><g filter="url(#a)" transform="translate(1 1)" fill="none" fill-rule="evenodd"><mask id="c" fill="#fff"><use xlink:href="#b"/></mask><use fill="#29B899" xlink:href="#b"/><g mask="url(#c)"><path d="M37.961 14.383c-2.102-2.1-4.88-3.273-7.82-3.3h-.102c-2.895 0-5.598 1.114-7.626 3.142-4.244 4.245-4.174 11.217.156 15.548 2.375 2.378 5.638 3.576 8.946 3.252l.18-.007 6.81.052h.006a.902.902 0 0 0 .639-1.539l-1.143-1.141.912-1.354c3.468-4.34 3.055-10.64-.958-14.653" fill="#FFF"/><path d="M20.02 32.321a14.742 14.742 0 0 1-3.695-14.755 11.273 11.273 0 0 0-4.146 2.63c-4.015 4.014-4.426 10.313-.958 14.651l.91 1.358-1.141 1.139a.918.918 0 0 0-.265.648.88.88 0 0 0 .27.631c.099.098.31.26.632.26h.007l6.81-.052.181.007c2.996.293 5.95-.674 8.248-2.626a14.809 14.809 0 0 1-6.854-3.89" fill="#BFE9E0"/></g></g></svg>