<svg width="20" height="20" viewBox="0 0 20 20" fill="none" xmlns="http://www.w3.org/2000/svg">
    <path fill-rule="evenodd" clip-rule="evenodd" d="M8.21966 11.6087C8.5212 11.2948 8.5212 10.7798 8.21966 10.4659C7.91811 10.152 7.42344 10.152 7.1219 10.4659L4.22616 13.4793C4.10204 13.609 4.02901 13.7724 4.00707 13.9417C4.00241 13.9773 4 14.0137 4 14.0506C4 14.0507 4 14.0508 4 14.0509C3.99991 14.2583 4.07529 14.4656 4.22616 14.6233C4.2489 14.6469 4.27272 14.6687 4.29745 14.6887C4.31448 14.7107 4.33278 14.732 4.35235 14.7525L7.24809 17.7659C7.54963 18.0798 8.0443 18.0798 8.34585 17.7659C8.64739 17.4519 8.64739 16.937 8.34585 16.6231L6.65132 14.8583H15.2238C15.6507 14.8583 15.9997 14.495 15.9997 14.0506C15.9997 13.6061 15.6507 13.2428 15.2238 13.2428H6.65056L8.21966 11.6087Z" fill="#26B99A"/>
    <path fill-rule="evenodd" clip-rule="evenodd" d="M11.7806 3.37825C11.4791 3.06433 11.4791 2.54936 11.7806 2.23544C12.0821 1.92152 12.5768 1.92152 12.8784 2.23544L15.7741 5.24883C16.0756 5.56393 16.0756 6.07772 15.7741 6.39282C15.7517 6.41608 15.7282 6.43763 15.7038 6.45745C15.687 6.47905 15.669 6.49996 15.6498 6.52005L12.7541 9.53344C12.4525 9.84736 11.9578 9.84736 11.6563 9.53344C11.3547 9.21952 11.3547 8.70455 11.6563 8.39063L13.3492 6.62752H4.77589C4.34898 6.62752 4 6.26422 4 5.81979C4 5.37537 4.34898 5.01207 4.77589 5.01207H13.3494L11.7806 3.37825Z" fill="#7482BE"/>
</svg>
