<svg width="40" height="40" viewBox="0 0 40 40" xmlns="http://www.w3.org/2000/svg" xmlns:xlink="http://www.w3.org/1999/xlink">
  <defs>
    <path id="a" d="M35.7732.928625H.0252V25.84855h35.748V.928625z"/>
  </defs>
  <g fill="none" fill-rule="evenodd">
    <g transform="translate(2 1)">
      <mask id="b" fill="#fff">
        <use xlink:href="#a"/>
      </mask>
      <path d="M35.7732 16.0873l-.0168-.01425L19.2228 1.4288c-.7536-.667375-1.8936-.667375-2.6472 0L.042 16.07305l-.0168.01425 17.8752 9.76125 17.8728-9.76125z" fill="#7483BE" mask="url(#b)"/>
    </g>
    <path d="M19.89992 28.29635l17.4072 9.507125c.2928-.22325.492-.55575.492-.947625v-18.297l-.0264-.02375-17.8728 9.76125zm0 0L2.02712 18.5351l-.0264.02375v18.297c0 .672125.5496 1.216 1.2288 1.216h33.3408c.2832 0 .5304-.10925.7368-.268375l-17.4072-9.507125z" fill="#26B99A"/>
  </g>
</svg>