<?xml version="1.0" encoding="UTF-8"?>
<svg width="35px" height="35px" viewBox="0 0 35 35" version="1.1" xmlns="http://www.w3.org/2000/svg" xmlns:xlink="http://www.w3.org/1999/xlink">
    <!-- Generator: Sketch 46.2 (44496) - http://www.bohemiancoding.com/sketch -->
    <title>Icons-Viber_Large</title>
    <desc>Created with Sketch.</desc>
    <defs></defs>
    <g id="Symbols" stroke="none" stroke-width="1" fill="none" fill-rule="evenodd">
        <g id="Icons-Viber_Large">
            <g>
                <path d="M4.375,0 L30.625,0 C33.041246,0 35,1.958754 35,4.375 L35,30.625 C35,33.041246 33.041246,35 30.625,35 L4.375,35 C1.958754,35 0,33.041246 0,30.625 L0,4.375 C0,1.958754 1.958754,0 4.375,0" id="Fill-1" fill="#7B519D"></path>
                <path d="M18.5981409,5.30872137 C25.2789503,6.33630708 28.3600331,9.51380533 29.2107673,16.2442508 C29.2896764,16.865937 29.0581583,17.8014008 29.9449233,17.8186431 C30.8716959,17.8363475 30.6483698,16.9147083 30.6561697,16.2924057 C30.7345326,9.9535589 25.2087232,4.07718448 18.7913037,3.86051522 C18.3071363,3.93021244 17.3052915,3.52656808 17.2427944,4.61201535 C17.2011483,5.34380809 18.0446427,5.2235748 18.5981409,5.30872137 M28.8446206,23.6390048 C28.0105644,22.9673847 27.1192903,22.3645795 26.2419497,21.748776 C24.4922116,20.5195782 22.8918056,20.4240247 21.5861712,22.4016551 C20.8529814,23.5119222 19.8265887,23.5605534 18.7533545,23.0734713 C15.7947314,21.7316178 13.5100776,19.6641205 12.1718292,16.6562431 C11.5798217,15.3254829 11.5876216,14.1323803 12.9727113,13.1911738 C13.7060411,12.6934186 14.4448462,12.1044239 14.3857658,11.0167776 C14.3086491,9.59860175 10.8661247,4.85924717 9.50667519,4.35902679 C8.94414483,4.15200813 8.38393904,4.16548256 7.81163432,4.35786424 C4.62394365,5.43011723 3.30360561,8.05233486 4.56808411,11.1571945 C8.34037448,20.4203409 14.9790056,26.8690141 24.1174527,30.8049738 C24.638477,31.0290946 25.2172793,31.1186813 25.5103283,31.1991216 C27.5908827,31.2200476 30.0281314,29.2150621 30.731998,27.2252739 C31.4096783,25.3109816 29.9774671,24.5511475 28.8446206,23.6390048" id="Fill-3" fill="#FFFFFF"></path>
                <path d="M19.9083179,7.12902507 C19.2664304,7.05149157 18.4190337,6.7481893 18.2690562,7.64137459 C18.1124345,8.57888879 19.0568927,8.48367985 19.6637407,8.61992108 C23.7853666,9.54374382 25.2204899,11.048205 25.8991094,15.1484181 C25.9982132,15.7461849 25.8013065,16.6765868 26.8142631,16.5223896 C27.564948,16.4077377 27.2937939,15.6102242 27.3565573,15.144378 C27.3898204,11.2078733 24.0263908,7.62494765 19.9083179,7.12902507" id="Fill-5" fill="#FFFFFF"></path>
                <path d="M20.2803808,10.3586879 C19.8515787,10.3692746 19.4307142,10.4156353 19.2730807,10.8734376 C19.0363646,11.5576587 19.5343379,11.7207949 20.0412008,11.8021323 C21.7333663,12.0734992 22.6239113,13.0702874 22.7929682,14.7560096 C22.8386203,15.2135322 23.1292762,15.5842493 23.5716858,15.5320849 C24.1847623,15.4590127 24.2402,14.9138874 24.2214128,14.3962009 C24.2516935,12.5023384 22.1089147,10.3133482 20.2803808,10.3586879" id="Fill-7" fill="#FFFFFF"></path>
            </g>
        </g>
    </g>
</svg>