<?xml version="1.0" encoding="UTF-8"?>
<svg width="18px" height="19px" viewBox="0 0 18 19" version="1.1" xmlns="http://www.w3.org/2000/svg" xmlns:xlink="http://www.w3.org/1999/xlink">
    <!-- Generator: Sketch 50.2 (55047) - http://www.bohemiancoding.com/sketch -->
    <title>Atoms/Icons/Event-Small</title>
    <desc>Created with Sketch.</desc>
    <defs></defs>
    <g id="Panel" stroke="none" stroke-width="1" fill="none" fill-rule="evenodd">
        <g id="Icons-Exploration-2" transform="translate(-812.000000, -502.000000)">
            <g id="Atoms/Icons/Event-Small" transform="translate(806.000000, 497.000000)">
                <g id="Shape">
                    <polygon points="0 0 30 0 30 30 0 30"></polygon>
                    <path d="M22.2,6.72727273 L21.3,6.72727273 L21.3,5.9 C21.3,5.40294373 20.8970563,5 20.4,5 L20.4,5 C19.9029437,5 19.5,5.40294373 19.5,5.9 L19.5,6.72727273 L10.5,6.72727273 L10.5,5.9 C10.5,5.40294373 10.0970563,5 9.6,5 L9.6,5 C9.10294373,5 8.7,5.40294373 8.7,5.9 L8.7,6.72727273 L7.8,6.72727273 C6.81,6.72727273 6,7.50454545 6,8.45454545 L6,22.2727273 C6,23.2227273 6.81,24 7.8,24 L22.2,24 C23.19,24 24,23.2227273 24,22.2727273 L24,8.45454545 C24,7.50454545 23.19,6.72727273 22.2,6.72727273 Z M22,22 L8,22 L8,11 L22,11 L22,22 Z" fill="#7383BF" fill-rule="nonzero"></path>
                </g>
            </g>
        </g>
    </g>
</svg>