<?xml version="1.0" encoding="UTF-8"?>
<svg width="19px" height="16px" viewBox="0 0 19 16" version="1.1" xmlns="http://www.w3.org/2000/svg" xmlns:xlink="http://www.w3.org/1999/xlink">
    <!-- Generator: Sketch 52.4 (67378) - http://www.bohemiancoding.com/sketch -->
    <title>Atoms/Icons/Channels/Voice-Small Copy 2</title>
    <desc>Created with Sketch.</desc>
    <g id="Components" stroke="none" stroke-width="1" fill="none" fill-rule="evenodd">
        <g id="Atoms" transform="translate(-1226.000000, -2038.000000)">
            <g id="Atoms/Icons/Channels/Voice-Small" transform="translate(1220.000000, 2031.000000)">
                <g>
                    <rect id="Rectangle-6" x="0" y="0" width="30" height="30"></rect>
                    <g id="Voice-Icon" transform="translate(6.000000, 7.500000)" fill="#545454" fill-rule="nonzero">
                        <g id="Group-7">
                            <path d="M12.5460383,1.51696715 C12.3306011,1.45981243 12.0950634,1.55182746 12.022392,1.72126484 C11.9481744,1.89070222 12.0646547,2.07432694 12.280092,2.13269771 C15.2075634,2.91340677 17.1748448,5.07150389 17.1748448,7.5003765 C17.1748448,9.92641169 15.2116865,12.0845088 12.2903999,12.8684607 C12.0749628,12.92521 11.957967,13.1104562 12.0327,13.2798936 C12.0909402,13.4144706 12.2522603,13.5 12.4233731,13.5 C12.4676975,13.5 12.5120219,13.4939197 12.5563463,13.4825698 C15.8116121,12.6086297 18,10.2048889 18,7.5003765 C18,4.79302667 15.8074889,2.38928589 12.5460383,1.51696715" id="Fill-1" stroke="#545454" stroke-width="0.5"></path>
                            <path d="M12.3470694,4.5089806 C12.2021972,4.47407865 12.0522238,4.54388254 12.0110746,4.66676046 C11.9685652,4.78848459 12.0522238,4.91684297 12.197096,4.95203336 C13.526792,5.27855401 14.4551988,6.32647763 14.4551988,7.49958672 C14.4551988,8.67356118 13.526792,9.72148476 12.197096,10.0471401 C12.0522238,10.0831958 11.9685652,10.2104004 12.0110746,10.3332783 C12.0454223,10.4345228 12.1532263,10.5 12.2712326,10.5 C12.2967383,10.5 12.3219038,10.4965387 12.3470694,10.4910582 C13.9093773,10.1080022 15,8.87749235 15,7.49958672 C15,6.12139266 13.9093773,4.89203663 12.3470694,4.5089806 Z" id="Fill-3" stroke="#545454" stroke-width="0.5"></path>
                            <path d="M4.18916877,10.8674181 L4.18916877,3.82204234 L8.81475004,0.175426095 C8.82875001,0.164421077 8.84406251,0.154638839 8.85937501,0.145264194 C9.19625004,-0.042636291 9.59918753,-0.0491577829 9.94131247,0.130998431 C10.2913125,0.315638171 10.5,0.651495004 10.5,1.03055672 L10.5,13.9716422 C10.5,14.350704 10.2913125,14.6865608 9.94131247,14.8695702 C9.77549999,14.9572027 9.594375,15 9.41325002,15 C9.22337498,15 9.03218748,14.9523116 8.85937501,14.8553044 C8.84056252,14.8442994 8.82175002,14.8312564 8.80293752,14.8169906 L4.18916877,10.8674181 Z M3.4453125,10.7604866 L0.3504375,10.7618454 C0.256375,10.7618454 0.1693125,10.7267924 0.102375,10.6664686 C0.037625,10.6057372 0,10.5229958 0,10.4353633 L0,4.24035353 C0,4.06019731 0.1570625,3.91387134 0.3504375,3.91387134 L3.4453125,3.91387134 L3.4453125,10.7604866 Z" id="Combined-Shape"></path>
                        </g>
                    </g>
                </g>
            </g>
        </g>
    </g>
</svg>