<?xml version="1.0" encoding="UTF-8"?>
<!DOCTYPE svg PUBLIC "-//W3C//DTD SVG 1.1//EN" "http://www.w3.org/Graphics/SVG/1.1/DTD/svg11.dtd">
<svg xmlns="http://www.w3.org/2000/svg" xml:space="preserve" width="5.06944in" height="5.47222in" version="1.1" style="shape-rendering:geometricPrecision; text-rendering:geometricPrecision; image-rendering:optimizeQuality; fill-rule:evenodd; clip-rule:evenodd"
viewBox="0 0 5069 5472"
 xmlns:xlink="http://www.w3.org/1999/xlink">
 <defs>
  <style type="text/css">
   <![CDATA[
    .fil0 {fill:#885399;fill-rule:nonzero}
   ]]>
  </style>
 </defs>
 <g id="Layer_x0020_1">
  <metadata id="CorelCorpID_0Corel-Layer"/>
  <path class="fil0" d="M4497 533 m148 2534c-135,1112 -929,1182 -1076,1231 -62,20 -642,168 -1370,119l-790 875 -1 -1009 -6 -2c-1061,-302 -1025,-1433 -1013,-2026 12,-594 121,-1080 445,-1407 581,-539 1779,-459 1779,-459 1011,5 1496,316 1609,421 373,327 563,1110 424,2256z"/>
  <path class="phone" fill="#ffffff" d="M3732 3233c-1,0 -161,-137 -239,-196 -74,-56 -192,-130 -257,-168 -118,-67 -239,-25 -289,41l-104 133c-53,67 -135,56 -156,52 -153,-38 -316,-134 -482,-295 -168,-163 -270,-332 -307,-509l-3 -12c-10,-73 2,-106 32,-156l6 -5c70,-65 199,-144 217,-219 51,-131 -170,-404 -202,-452 0,0 -161,-213 -218,-254 -62,-51 -157,-81 -254,-21l-5 4c-277,188 -377,295 -350,456l14 65c141,443 412,915 817,1336 400,415 833,664 1260,836 111,37 226,5 344,-96l2 -1c90,-85 162,-175 215,-272l0 -2c52,-102 34,-199 -42,-265z"/>
  <path class="buzz" fill="#ffffff" d="M3068 2263c-17,0 -31,-14 -32,-31 -6,-115 -37,-203 -92,-262 -55,-58 -138,-91 -246,-97 -18,-1 -31,-16 -30,-34 1,-18 16,-32 34,-31 124,7 221,46 288,117 66,70 104,172 110,304 1,18 -13,33 -30,34l-2 0z"/>
  <path class="buzz" fill="#ffffff" d="M3384 2371l-1 0c-18,-1 -31,-15 -31,-33 5,-220 -59,-407 -191,-554 -66,-74 -145,-132 -237,-173 -92,-41 -199,-66 -319,-76 -18,-1 -31,-17 -29,-35 1,-18 17,-32 34,-30 255,19 456,110 598,269 143,160 213,362 208,600 0,18 -15,32 -32,32z"/>
  <path class="buzz" fill="#ffffff" d="M3707 2501c-18,0 -32,-14 -32,-32 -1,-195 -31,-371 -87,-524 -56,-152 -141,-285 -253,-397 -112,-111 -238,-196 -377,-252 -139,-56 -294,-85 -460,-87 -18,0 -32,-15 -32,-33 0,-18 14,-32 32,-32l0 0c349,3 646,123 881,358 118,118 208,259 268,420 59,160 90,344 92,547 0,18 -14,33 -32,33l0 0z"/>
 </g>
</svg>
