<?xml version="1.0" encoding="UTF-8"?>
<svg width="30px" height="35px" viewBox="0 0 30 35" version="1.1" xmlns="http://www.w3.org/2000/svg" xmlns:xlink="http://www.w3.org/1999/xlink">
    <!-- Generator: Sketch 50.2 (55047) - http://www.bohemiancoding.com/sketch -->
    <title>Atoms/Icons/Inbound-Message-Large</title>
    <desc>Created with Sketch.</desc>
    <defs></defs>
    <g id="Panel" stroke="none" stroke-width="1" fill="none" fill-rule="evenodd">
        <g id="Icons-Exploration-2" transform="translate(-119.000000, -495.000000)">
            <g id="Atoms/Icons/Inbound-Message-Large" transform="translate(108.000000, 487.000000)">
                <g id="Shape">
                    <polygon points="0 0 50 0 50 50 0 50"></polygon>
                    <path d="M29.8040052,8.26666667 L14.1573648,8.26666667 C12.4362343,8.26666667 11.0280367,9.66575758 11.0280367,11.3757576 L11.0280367,18.0393939 L14.1573648,18.0393939 L14.1573648,12.930303 L29.8040052,12.930303 L29.8040052,37.8030303 L14.1573648,37.8030303 L14.1573648,33.0029297 L11.0280367,33.0029297 L11.0280367,39.3575758 C11.0280367,41.0675758 12.4362343,42.4666667 14.1573648,42.4666667 L29.8040052,42.4666667 C31.5251357,42.4666667 32.9333333,41.0675758 32.9333333,39.3575758 L32.9333333,11.3757576 C32.9333333,9.66575758 31.5251357,8.26666667 29.8040052,8.26666667 Z" fill="#7383BF" fill-rule="nonzero" transform="translate(21.980685, 25.366667) scale(-1, 1) translate(-21.980685, -25.366667) "></path>
                    <path d="M26.7826647,24.1377759 L39.3796632,24.1377759 C39.9888368,24.1377759 40.486812,24.6368577 40.486812,25.247385 C40.486812,25.8579123 39.9888368,26.3569941 39.3796632,26.3569941 L26.7827342,26.3569941 L29.1993079,28.7798829 C29.6295971,29.2111283 29.6295971,29.9185647 29.1993079,30.3498101 C28.7690186,30.7810556 28.0631508,30.7810556 27.6328616,30.3498101 L23.5007955,26.2101768 C23.4731623,26.1823786 23.4473038,26.1534546 23.4232199,26.1235494 C23.3883657,26.0962811 23.3547903,26.0666345 23.3227169,26.0346099 C22.8924277,25.6017492 22.8924277,24.8959281 23.3227169,24.4630674 L27.4547831,20.3234341 C27.8850723,19.8921886 28.5909401,19.8921886 29.0212293,20.3234341 C29.4515186,20.7546795 29.4515186,21.4621159 29.0212293,21.8933614 L26.7826647,24.1377759 Z" fill="#26B99A" fill-rule="nonzero" transform="translate(31.743406, 25.336622) scale(-1, 1) translate(-31.743406, -25.336622) "></path>
                </g>
            </g>
        </g>
    </g>
</svg>