<?xml version="1.0" encoding="utf-8"?>
<!-- Generator: Adobe Illustrator 18.1.1, SVG Export Plug-In . SVG Version: 6.00 Build 0)  -->
<!DOCTYPE svg PUBLIC "-//W3C//DTD SVG 1.1//EN" "http://www.w3.org/Graphics/SVG/1.1/DTD/svg11.dtd">
<svg version="1.1" id="Layer_1" xmlns="http://www.w3.org/2000/svg" xmlns:xlink="http://www.w3.org/1999/xlink" x="0px" y="0px"
     viewBox="0 0 300 82" enable-background="new 0 0 300 82" xml:space="preserve">
<g>
    <path fill="#FFFFFF" d="M85.1,25.6c2.2,2.7,2.9,6.9,2.1,12.6l-3.9,27.4H66.4l3.4-23.7c0.4-2.7,0.2-4.6-0.7-5.7
        c-0.9-1.1-2.2-1.7-4-1.7c-2,0-3.8,0.8-5.3,2.3c-1.5,1.5-2.5,4.2-3.1,8.2l-3,20.7H37l6.2-43.1h15.6l-1,7c2.7-2.9,5.4-4.9,8-6.1
        c2.6-1.2,5.6-1.9,9-1.9C79.4,21.5,82.9,22.9,85.1,25.6z M123.2,22.5h-8c0.3-1.9,0.5-3.2,0.8-3.8c0.4-1.1,1-1.9,1.7-2.4
        c0.7-0.5,1.8-0.7,3.4-0.7c1.2,0,2.8,0.2,4.8,0.5l3.3-10c-5.5-0.7-9.7-1-12.7-1c-3.7,0-6.5,0.4-8.6,1.2c-2,0.8-3.7,1.9-4.9,3.3
        c-1.3,1.3-2.2,3.1-2.9,5.2c-0.7,2.1-1.2,4.1-1.4,5.8l-0.3,2h-6.2l-1.7,12.1h6.3l-4.5,31H109l4.5-31h8L123.2,22.5z M168.2,29
        c3,4,4.1,9,3.2,14.9c-0.9,6.6-4,12.1-9,16.3c-5.1,4.2-11.5,6.3-19.4,6.3c-7,0-12.5-1.8-16.3-5.3c-4.7-4.4-6.5-10.1-5.5-17.1
        c0.9-6.6,4-12,9.1-16.2c5.1-4.3,11.5-6.4,19.2-6.4C158.2,21.5,164.4,24,168.2,29z M153.5,35.6c-1.3-1.8-3.1-2.7-5.4-2.7
        c-2.4,0-4.6,0.9-6.4,2.8c-1.9,1.8-3.1,4.7-3.6,8.5c-0.6,3.9-0.2,6.7,1.1,8.5c1.3,1.8,3.2,2.8,5.6,2.8c2.4,0,4.5-0.9,6.3-2.7
        c1.8-1.8,3-4.7,3.6-8.7C155.1,40.2,154.8,37.5,153.5,35.6z M221.5,27.2c2.9,3.8,3.9,9.2,2.9,16.3c-0.7,4.7-2.1,8.9-4.2,12.4
        c-2.1,3.6-4.7,6.3-7.8,8c-3.1,1.8-6.3,2.7-9.7,2.7c-2.9,0-5.5-0.6-7.8-1.9c-1.7-1-3.4-2.8-5.2-5.5l-0.9,6.4h-15.7l8.6-59.5h16.9
        l-3,20.6c1.9-1.7,4-3,6.3-3.9c2.3-0.9,4.7-1.3,7.2-1.3C214.4,21.5,218.6,23.4,221.5,27.2z M206.7,36.3c-1.1-1.6-2.6-2.4-4.5-2.4
        c-2.3,0-4.3,0.8-5.9,2.5c-1.7,1.7-2.8,4.2-3.2,7.6c-0.5,3.7-0.2,6.4,1,8.1c1.2,1.7,2.8,2.5,5,2.5c2,0,3.8-0.8,5.4-2.5
        c1.6-1.6,2.7-4.4,3.2-8.3C208.1,40.4,207.8,37.8,206.7,36.3z M232.2,22.5L226,65.6h16.8l6.2-43.1H232.2z M19,21.2
        C19,21.2,19,21.2,19,21.2l1.2-8.2l0,0c0.2-1.8,2.3-1.7,2.3-1.7v0h15.7L39.8,0H23.1l-1.4,9.4c-0.3,2.2-1.5,1.8-2.1,1.8h-18L0,22.5
        h18.3c0.7,0.1,1.7-0.2,1.3,2l-5.9,41.1h16.8l6.2-43.1h-16C19.9,22.4,18.9,22.2,19,21.2z M299.8,35.9c0.2,1.9,0.3,4,0.1,6.4
        c0,0.7-0.1,1.4-0.2,2.2c-1,7.2-3.6,12.6-7.6,16.4c-4,3.8-8.7,5.7-14,5.7c-2.6,0-4.9-0.4-6.9-1.3c-2-0.9-3.7-2.2-5.1-3.9l-3,20.6
        h-16.9l8.6-59.5h15.7l-0.9,6.4c6.2-6.7,24.9-11,29.5,3.3c0.1,0.2,0.1,0.4,0.2,0.7c0.1,0.3,0.2,0.7,0.3,1c0.1,0.3,0.1,0.5,0.1,0.8
        C299.6,35,299.7,35.4,299.8,35.9C299.8,35.9,299.8,35.9,299.8,35.9z M282.1,36.1c-1.1-1.6-2.7-2.4-4.7-2.4c-2.1,0-4,0.8-5.7,2.5
        c-1.7,1.7-2.8,4.3-3.3,8c-0.5,3.4-0.1,5.9,1.1,7.6c1.2,1.7,2.9,2.5,5.2,2.5c1.9,0,3.7-0.8,5.2-2.4c1.5-1.6,2.6-4.3,3.1-8.1
        C283.5,40.3,283.2,37.8,282.1,36.1z"/>
</g>
</svg>
