<svg height="40" width="40" viewBox="0 0 40 40" xmlns="http://www.w3.org/2000/svg">
  <g fill="none" fill-rule="evenodd">
    <path d="M20 2.01C11.454 2.01 4.523 8.85 4.523 17.29c0 8.44 6.931 15.283 15.477 15.283v4.916a.5.5 0 0 0 .852.356l.695-.688 9.07-8.748c2.993-2.787 4.86-6.738 4.86-11.119C35.477 8.851 28.548 2.01 20 2.01zm-5.92 8.603c.242 0 .485.092.67.278l4.938 4.937 4.935-4.935a.946.946 0 0 1 1.34 0 .946.946 0 0 1 0 1.34l-4.936 4.935 4.936 4.937a.943.943 0 0 1 0 1.338v.002a.946.946 0 0 1-1.34 0l-4.936-4.937-4.937 4.937a.946.946 0 0 1-1.34 0 .946.946 0 0 1 0-1.34l4.938-4.937-4.938-4.936a.946.946 0 0 1 0-1.34v-.001a.944.944 0 0 1 .67-.278z" fill="#7d8cc4"/>
  </g>
</svg>
