<?xml version="1.0" encoding="UTF-8"?>
<svg width="12px" height="12px" viewBox="0 0 12 12" version="1.1" xmlns="http://www.w3.org/2000/svg" xmlns:xlink="http://www.w3.org/1999/xlink">
    <!-- Generator: Sketch 48.2 (47327) - http://www.bohemiancoding.com/sketch -->
    <title>Atoms/Icons/Tags</title>
    <desc>Created with Sketch.</desc>
    <defs></defs>
    <g id="Atoms" stroke="none" stroke-width="1" fill="none" fill-rule="evenodd" transform="translate(-1508.000000, -1610.000000)">
        <g id="Atoms/Icons/Tags" transform="translate(1504.000000, 1606.000000)">
            <g>
                <rect id="Rectangle-6" x="0" y="0" width="20" height="20"></rect>
                <path d="M7.24752475,7.25544554 C7.44818582,7.05478448 7.54851485,6.81452285 7.54851485,6.53465347 C7.54851485,6.25478408 7.44950594,6.01584257 7.25148515,5.81782178 C7.05346436,5.61980099 6.81452285,5.52079208 6.53465347,5.52079208 C6.25478408,5.52079208 6.01584257,5.61980099 5.81782178,5.81782178 C5.61980099,6.01584257 5.52079208,6.25478408 5.52079208,6.53465347 C5.52079208,6.81452285 5.61980099,7.05346436 5.81782178,7.25148515 C6.01584257,7.44950594 6.25478408,7.54851485 6.53465347,7.54851485 C6.81452285,7.54851485 7.05214424,7.45082606 7.24752475,7.25544554 Z M16,11.0970297 C16,11.3768991 15.9023112,11.6145205 15.7069307,11.809901 L11.8178218,15.7069307 C11.6118802,15.9023112 11.3716185,16 11.0970297,16 C10.8171603,16 10.5795389,15.9023112 10.3841584,15.7069307 L4.72079208,10.0356436 C4.52013101,9.84026305 4.34983568,9.57359905 4.20990099,9.23564356 C4.0699663,8.89768808 4,8.58878028 4,8.30891089 L4,5.01386139 C4,4.73927255 4.10032903,4.50165117 4.3009901,4.3009901 C4.50165117,4.10032903 4.73927255,4 5.01386139,4 L8.30891089,4 C8.58878028,4 8.89768808,4.0699663 9.23564356,4.20990099 C9.57359905,4.34983568 9.84290329,4.52013101 10.0435644,4.72079208 L15.7069307,10.3762376 C15.9023112,10.5821792 16,10.8224409 16,11.0970297 Z" id="Tag_Icon" fill="#545454"></path>
            </g>
        </g>
    </g>
</svg>