<?xml version="1.0" encoding="UTF-8"?>
<svg width="35px" height="35px" viewBox="0 0 35 35" version="1.1" xmlns="http://www.w3.org/2000/svg" xmlns:xlink="http://www.w3.org/1999/xlink">
    <!-- Generator: Sketch 47 (45396) - http://www.bohemiancoding.com/sketch -->
    <title>VKontakte_Large</title>
    <desc>Created with Sketch.</desc>
    <defs></defs>
    <g id="Input-States" stroke="none" stroke-width="1" fill="none" fill-rule="evenodd">
        <g id="iPad-Pro" transform="translate(-221.000000, -267.000000)">
            <g id="VKontakte_Large" transform="translate(221.000000, 267.000000)">
                <g id="Group-3" fill="#4F78A3">
                    <path d="M12.1333333,0 C21.9333333,0 13.0666667,0 22.8666667,0 C32.6666667,0 35,2.33333333 35,12.1333333 C35,21.9333333 35,13.0666667 35,22.8666667 C35,32.6666667 32.6666667,35 22.8666667,35 C13.0666667,35 21.9333333,35 12.1333333,35 C2.33333333,35 0,32.6666667 0,22.8666667 C0,13.0666667 0,17.6057292 0,12.1333333 C0,2.33333333 2.33333333,0 12.1333333,0" id="Fill-1"></path>
                </g>
                <path d="M28.7143811,11.9251709 C28.8776859,11.3747251 28.7143811,10.9701493 27.9366168,10.9701493 L25.3648877,10.9701493 C24.7109337,10.9701493 24.4094903,11.3196062 24.2460018,11.7048812 C24.2460018,11.7048812 22.9382776,14.9255273 21.0855305,17.017444 C20.4861339,17.6230086 20.2137143,17.8156461 19.8867373,17.8156461 C19.7232488,17.8156461 19.4866498,17.6230086 19.4866498,17.0725628 L19.4866498,11.9251709 C19.4866498,11.2644874 19.2968929,10.9701493 18.75187,10.9701493 L14.7105815,10.9701493 C14.3018602,10.9701493 14.0560764,11.2767361 14.0560764,11.5673625 C14.0560764,12.1935271 14.98245,12.338098 15.0779713,14.099673 L15.0779713,17.9258837 C15.0779713,18.764729 14.9280763,18.9169089 14.6010993,18.9169089 C13.7292831,18.9169089 11.6085251,15.6817871 10.3507659,11.9802897 C10.1042473,11.2607757 9.85699391,10.9701493 9.19973343,10.9701493 L6.62800434,10.9701493 C5.8932246,10.9701493 5.74626866,11.3196062 5.74626866,11.7048812 C5.74626866,12.3930312 6.61808482,15.8063148 9.80574302,20.3206756 C11.9309097,23.4034319 14.9251372,25.0746269 17.6497004,25.0746269 C19.2844016,25.0746269 19.4866498,24.7034564 19.4866498,24.0641153 L19.4866498,21.7340927 C19.4866498,20.9917518 19.6415046,20.8436548 20.1591569,20.8436548 C20.5405076,20.8436548 21.1944616,21.0362922 22.7202317,22.5226443 C24.4640477,24.2844049 24.7515303,25.0746269 25.7322776,25.0746269 L28.3040066,25.0746269 C29.0387864,25.0746269 29.4061762,24.7034564 29.1941923,23.9709515 C28.9623693,23.2408592 28.1296801,22.1817243 27.0251225,20.9262402 C26.4257259,20.2104379 25.5265392,19.4398881 25.2541196,19.0544275 C24.8725853,18.558915 24.9817,18.3386253 25.2541196,17.8982315 C25.2541196,17.8982315 28.3874041,13.4391752 28.7143811,11.9251709" id="Fill-7" fill="#FFFFFE"></path>
            </g>
        </g>
    </g>
</svg>