<?xml version="1.0" encoding="UTF-8"?>
<svg width="12px" height="13px" viewBox="0 0 12 13" version="1.1" xmlns="http://www.w3.org/2000/svg" xmlns:xlink="http://www.w3.org/1999/xlink">
    <!-- Generator: Sketch 50.2 (55047) - http://www.bohemiancoding.com/sketch -->
    <title>Atoms/Icons/Remove-From-Blacklist-Small-Blk</title>
    <desc>Created with Sketch.</desc>
    <defs></defs>
    <g id="Components" stroke="none" stroke-width="1" fill="none" fill-rule="evenodd">
        <g id="Atoms" transform="translate(-1307.000000, -1780.000000)">
            <g id="Atoms/Icons/Remove-From-Blacklist-Small-Blk" transform="translate(1303.000000, 1776.000000)">
                <g stroke-width="1">
                    <rect id="Rectangle-13" fill="#D8D8D8" opacity="0" x="0" y="0" width="20" height="20"></rect>
                    <path d="M9.61053382,15.0799699 C6.51192155,15.0799699 4,12.5996341 4,9.53998495 C4,6.48033575 6.51192155,4 9.61053382,4 C12.7091461,4 15.2210676,6.48033575 15.2210676,9.53998495 C15.2210676,11.1283592 14.5440991,12.5606072 13.4595178,13.5707601 L10.1715872,16.7419654 L10.2329447,16.5844419 C10.0669121,16.6261925 9.88374587,16.5815233 9.75475063,16.4508854 C9.66234754,16.3573056 9.61053382,16.2310883 9.61053382,16.0995759 L9.61053382,15.0799699 Z" id="Combined-Shape" fill="#545454"></path>
                </g>
                <path d="M8.42083415,10.7402281 L7.41597989,9.68576804 C7.29194102,9.55560585 7.08587035,9.55064192 6.95570816,9.67468079 C6.95220129,9.67802268 6.94876945,9.68144243 6.9454152,9.68493748 L6.9454152,9.68493748 C6.81356488,9.82232238 6.81318219,10.0391407 6.94454671,10.1769902 L8.2035868,11.4981843 C8.39409011,11.698092 8.71058079,11.7057158 8.91048852,11.5152125 C8.91630047,11.5096739 8.92197818,11.5039962 8.92751672,11.4981843 L12.3154375,7.94301488 C12.4464874,7.80549559 12.4464874,7.589312 12.3154375,7.45179271 L12.3154375,7.45179271 C12.1921946,7.32246573 11.9874462,7.31753365 11.8581192,7.4407766 C11.8543961,7.44432456 11.8507581,7.44796081 11.8472084,7.45168225 L8.710341,10.7402964 C8.63410196,10.8202235 8.50750426,10.8232133 8.42757713,10.7469742 C8.42527616,10.7447795 8.42302786,10.7425301 8.42083415,10.7402281 Z" id="Path" stroke="#FFFFFF" stroke-width="0.5" fill="#FFFFFF"></path>
            </g>
        </g>
    </g>
</svg>