<?xml version="1.0" encoding="UTF-8"?>
<svg width="12px" height="14px" viewBox="0 0 12 14" version="1.1" xmlns="http://www.w3.org/2000/svg" xmlns:xlink="http://www.w3.org/1999/xlink">
    <!-- Generator: Sketch 48.2 (47327) - http://www.bohemiancoding.com/sketch -->
    <title>Atoms/Icons/Channels/Viber-Small</title>
    <desc>Created with Sketch.</desc>
    <defs></defs>
    <g id="Atoms" stroke="none" stroke-width="1" fill="none" fill-rule="evenodd" transform="translate(-1347.000000, -1610.000000)">
        <g id="Atoms/Icons/Channels/Viber-Small" transform="translate(1343.000000, 1606.000000)">
            <g>
                <rect id="Rectangle-6" x="0" y="0" width="20" height="20"></rect>
                <g id="Viber-Icon" transform="translate(4.000000, 4.000000)" fill="#545454">
                    <path d="M2.85701393,13.0909091 C2.85701393,12.3498412 2.8577273,11.6417876 2.85630056,10.9330317 C2.85558719,10.514381 2.85986741,10.5010347 2.46109332,10.3436895 C1.51516409,9.97069699 0.814634293,9.35817449 0.442254911,8.40848364 C0.288166891,8.015823 0.174740988,7.61192342 0.11624461,7.19538002 C-0.0720851926,5.83968228 -0.0349899285,4.49100889 0.252498368,3.14865739 C0.535706442,1.82527162 1.38461729,1.00623351 2.62374179,0.525768612 C3.45125152,0.204756246 4.31656989,0.0607572638 5.19900916,0.0179087861 C6.60720245,-0.0502273178 7.99756148,0.0691864725 9.3472584,0.494861513 C10.4950715,0.857317489 11.3068871,1.56818076 11.6535851,2.7363286 C11.7691511,3.1240722 11.8433416,3.52024501 11.8932776,3.92063243 C11.998143,4.76074356 12.0345249,5.60366444 11.9624745,6.44939505 C11.9032648,7.1412926 11.7698645,7.81633173 11.5208982,8.46959541 C11.1649263,9.40594001 10.4986383,10.012843 9.54700213,10.3394749 C8.81009044,10.5923511 8.04963753,10.7187893 7.27777068,10.7953546 C6.68781331,10.8536566 6.09714257,10.8880759 5.50433171,10.8367982 C5.24680498,10.8150227 5.02566013,10.9049343 4.83947044,11.0784355 C4.33155067,11.5511736 3.87142673,12.0674627 3.42485682,12.5949906 C3.27005543,12.7783259 3.12524122,12.9707929 2.85701393,13.0909091 Z M8.12996304,9.56307451 C8.18203908,9.55534773 8.24909591,9.55113313 8.31258588,9.53497715 C8.82763935,9.39940737 9.20501233,9.08541935 9.46182569,8.63515911 C9.68796413,8.2389863 9.62875438,7.95941755 9.27349589,7.67071715 C8.93107807,7.39395813 8.57510621,7.13405753 8.2034402,6.89663481 C7.68838672,6.56789567 7.32385442,6.63603178 6.9643157,7.12141371 C6.76457197,7.39114839 6.54556724,7.45717719 6.2252639,7.33425123 C5.95632324,7.23029099 5.70735695,7.08839931 5.4719447,6.92473218 C4.93335,6.55103726 4.53029568,6.06846506 4.27847591,5.4692888 C4.107267,5.06257948 4.18645112,4.80408375 4.54598983,4.54629045 C4.61304666,4.49852493 4.68010348,4.44935455 4.7400266,4.39315982 C4.92336281,4.22106348 4.98257256,4.01103569 4.87842047,3.78274462 C4.60163273,3.17935376 4.21070572,2.65463552 3.71205976,2.20999476 C3.58721993,2.09830774 3.43241854,2.0540544 3.26620322,2.06810308 C2.70192719,2.11727346 2.15263193,2.59703593 2.04491299,3.14142232 C1.98498987,3.44487384 2.04776647,3.73638397 2.16618597,4.01876247 C3.23481492,6.58053949 5.10170543,8.35910253 7.66769898,9.45068506 C7.8096597,9.51109439 7.9594675,9.55043069 8.12996304,9.56307451 Z M9.52424561,5.36287004 C9.51354505,5.19428587 9.50141775,5.02640413 9.47502305,4.85922482 C9.22463001,3.25767516 7.6309604,1.93288452 5.99234845,1.96519649 C5.85324121,1.96800623 5.75479608,2.00593766 5.74266879,2.16187803 C5.73054149,2.32975977 5.85324121,2.34451088 5.97094733,2.35434496 C6.23061418,2.37541798 6.4838607,2.43020784 6.73568047,2.4934269 C7.76079383,2.7512202 8.51268629,3.31948936 8.87008489,4.33099441 C9.01917932,4.75526458 9.10692389,5.19147613 9.1333186,5.63892663 C9.14116567,5.77098423 9.19966205,5.84473981 9.33662918,5.84333494 C9.46931608,5.84193007 9.51853865,5.75763798 9.52353224,5.6403315 C9.52709909,5.5476102 9.52424561,5.45559134 9.52424561,5.36287004 Z M8.58309596,5.08407396 C8.58808955,4.63170643 8.43756838,4.22780684 8.16791435,3.8681606 C7.71135725,3.2577454 7.08644473,2.93954278 6.32599181,2.86157259 C6.14194223,2.84260687 6.04920407,2.88966996 6.02352274,3.03226407 C5.99998151,3.16713141 6.07845226,3.24580403 6.26892218,3.27249652 C6.53358262,3.30832066 6.7875425,3.38277867 7.03579542,3.47479753 C7.54514193,3.66445473 7.88256616,4.01356445 8.04450126,4.52774619 C8.12653886,4.78834922 8.18075502,5.05457173 8.20714972,5.32641371 C8.21785028,5.43529099 8.28134025,5.49710519 8.39333941,5.49289059 C8.50605195,5.48867598 8.58380933,5.43810073 8.58309596,5.31306747 L8.58309596,5.08407396 Z M7.70807575,4.95602023 C7.7116426,4.44535067 7.23939135,3.88340342 6.75857966,3.7963016 C6.66013454,3.77874075 6.56097604,3.77593101 6.46181755,3.79559916 C6.35267187,3.81667219 6.30487605,3.89393993 6.29845571,3.99368557 C6.29132201,4.09343121 6.35980557,4.13838699 6.44826351,4.15875757 C6.50247967,4.17069895 6.55669582,4.18053303 6.61019861,4.19247441 C6.98043788,4.27746893 7.21228328,4.49592592 7.28290695,4.86962084 C7.29646099,4.93916182 7.3035947,5.01081009 7.32642255,5.07683889 C7.354244,5.15972611 7.41274038,5.21451597 7.5111855,5.21030136 C7.60749051,5.20678919 7.66670026,5.16042854 7.68810137,5.06911212 C7.69880193,5.0213466 7.70522227,4.97287865 7.70807575,4.95602023 Z" id="Combined-Shape"></path>
                </g>
            </g>
        </g>
    </g>
</svg>