<?xml version="1.0" encoding="UTF-8"?>
<svg width="14px" height="13px" viewBox="0 0 14 13" version="1.1" xmlns="http://www.w3.org/2000/svg" xmlns:xlink="http://www.w3.org/1999/xlink">
    <!-- Generator: Sketch 50.2 (55047) - http://www.bohemiancoding.com/sketch -->
    <title>Atoms/Icons/Channels/RCS1-Small</title>
    <desc>Created with Sketch.</desc>
    <defs></defs>
    <g id="Canvas" stroke="none" stroke-width="1" fill="none" fill-rule="evenodd">
        <g id="Flow-Icons" transform="translate(-836.000000, -319.000000)">
            <g id="Atoms/Icons/Channels/RCS1-Small" transform="translate(833.000000, 315.000000)">
                <g>
                    <rect id="Rectangle-6" x="0" y="0" width="20" height="20"></rect>
                    <g id="sms_Small_Black" transform="translate(2.000000, 2.000000)">
                        <rect id="Rectangle-5" x="0" y="0" width="16" height="16"></rect>
                        <g id="Group-2" transform="translate(1.000000, 2.000000)" fill="#545454">
                            <path d="M9.46396163,8.91286555 C9.46396163,9.50022534 9.00905756,9.97628229 8.44800233,9.97628229 L4.92934924,9.99138151 L2.86816178,12.3641166 L2.86816178,9.99138151 L1.41069614,9.99138151 C0.849640913,9.99138151 0.394736842,9.51532456 0.394736842,8.92818047 L0.394736842,4.36799928 C0.394736842,3.78063949 0.849640913,3.30458254 1.41069614,3.30458254 L8.44800233,3.28948332 C9.00905756,3.28948332 9.46396163,3.76554027 9.46396163,4.35268436 L9.46396163,8.91286555 Z M5.23765557,6.2816993 L5.86869013,4.39588617 C5.86869013,4.39588617 5.87646602,4.37251124 5.87646602,4.33762773 C5.87617802,4.23828426 5.79859191,4.15778386 5.70297726,4.15778386 C5.64958281,4.15778386 5.60183308,4.18324584 5.56992313,4.22236307 L3.26003467,6.81107821 C3.23734059,6.83743464 3.22720313,6.87768485 3.22720313,6.91727912 C3.22720313,7.01638406 3.30490444,7.09676521 3.40063429,7.09676521 L4.60746284,7.32373232 L4.04134797,9.13828337 C4.04134797,9.13828337 4.03357208,9.16171793 4.03357208,9.19654181 C4.03380247,9.29582564 4.11144618,9.37620678 4.20706083,9.37620678 C4.26039768,9.37620678 4.30820501,9.35080443 4.34011496,9.3116872 L6.69431399,6.64463334 C6.71706567,6.61827691 6.72720313,6.57796708 6.72720313,6.53837281 C6.72720313,6.43932749 6.64955942,6.35888672 6.55377197,6.35888672 L5.23765557,6.2816993 Z" id="Combined-Shape"></path>
                            <path d="M5.00617091,0.300003052 C4.44490956,0.300003052 3.99000549,0.776059997 3.99000549,1.36320409 L3.99000549,2.68373903 L9.15760855,2.67273817 C9.76863899,2.75346236 10.1735678,3.3465706 10.1735678,3.7359392 C10.1735678,4.12530781 10.1735678,7.71372177 10.1735678,7.71372177 L11.6163991,9.37463636 L11.6163991,7.00190124 L12.043271,7.00190124 C12.6043262,7.00190124 13.0592303,6.52584429 13.0592303,5.9387002 L13.0592303,1.37851901 C13.0592303,0.791159221 12.6043262,0.315102275 12.043271,0.315102275 L5.00617091,0.300003052 Z" id="Fill-3"></path>
                        </g>
                    </g>
                </g>
            </g>
        </g>
    </g>
</svg>
