<svg xmlns="http://www.w3.org/2000/svg" width="40" height="40" viewBox="0 0 40 40">
  <g fill="none" fill-rule="evenodd">
    <text fill="#B4B4B4" transform="translate(0 -998)" font-weight="300" font-family="Roboto-Light, Roboto" font-size="6">
      <tspan x="0" y="987">Traffic</tspan>
    </text>
    <path fill="#26B99A" d="M12.4 27.87h20.704c1.03 0 1.873.844 1.873 1.878 0 1.033-.842 1.877-1.873 1.877H12.4l4.09 4.1c.73.73.73 1.928 0 2.657-.727.73-1.922.73-2.65 0l-6.993-7.005c-.047-.047-.09-.096-.13-.147-.06-.046-.117-.096-.17-.15-.73-.733-.73-1.927 0-2.66l6.99-7.005c.73-.73 1.924-.73 2.652 0 .727.73.727 1.927 0 2.657L12.4 27.87z"/>
    <path fill="#7382BE" d="M28.576 8.736H7.874C6.844 8.736 6 9.58 6 10.614s.843 1.878 1.874 1.878h20.702l-4.09 4.1c-.728.73-.728 1.927 0 2.657.73.73 1.923.73 2.65 0l6.994-7.007c.047-.047.09-.096.13-.147.06-.046.117-.096.172-.15.728-.733.728-1.928 0-2.66L27.44 2.28c-.73-.728-1.924-.728-2.652 0-.728.73-.728 1.928 0 2.658l3.788 3.798z"/>
  </g>
</svg>