<?xml version="1.0" encoding="UTF-8"?>
<svg width="25px" height="18px" viewBox="0 0 25 18" version="1.1" xmlns="http://www.w3.org/2000/svg" xmlns:xlink="http://www.w3.org/1999/xlink">
    <!-- Generator: Sketch 49 (51002) - http://www.bohemiancoding.com/sketch -->
    <title>Atoms/Icons/Remove-Tag</title>
    <desc>Created with Sketch.</desc>
    <defs></defs>
    <g id="Components" stroke="none" stroke-width="1" fill="none" fill-rule="evenodd">
        <g id="Atoms" transform="translate(-1706.000000, -965.000000)">
            <g id="Atoms/Icons/Remove-Tag" transform="translate(1703.000000, 959.000000)">
                <g>
                    <rect id="Rectangle-6" x="0" y="0" width="30" height="30"></rect>
                    <path d="M7.87128713,10.8831683 C8.17227873,10.5821767 8.32277228,10.2217843 8.32277228,9.8019802 C8.32277228,9.38217612 8.17425891,9.02376386 7.87722772,8.72673267 C7.58019653,8.42970149 7.22178428,8.28118812 6.8019802,8.28118812 C6.38217612,8.28118812 6.02376386,8.42970149 5.72673267,8.72673267 C5.42970149,9.02376386 5.28118812,9.38217612 5.28118812,9.8019802 C5.28118812,10.2217843 5.42970149,10.5801965 5.72673267,10.8772277 C6.02376386,11.1742589 6.38217612,11.3227723 6.8019802,11.3227723 C7.22178428,11.3227723 7.57821636,11.1762391 7.87128713,10.8831683 Z M16.2667527,22.0172395 L14.7267327,23.560396 C14.4178202,23.8534668 14.0574278,24 13.6455446,24 C13.2257405,24 12.8693084,23.8534668 12.5762376,23.560396 L4.08118812,15.0534653 C3.78019651,14.7603946 3.52475352,14.3603986 3.31485149,13.8534653 C3.10494945,13.3465321 3,12.8831704 3,12.4633663 L3,7.52079208 C3,7.10890883 3.15049354,6.75247675 3.45148515,6.45148515 C3.75247675,6.15049354 4.10890883,6 4.52079208,6 L9.46336634,6 C9.88317042,6 10.3465321,6.10494945 10.8534653,6.31485149 C11.3603986,6.52475352 11.7643549,6.78019651 12.0653465,7.08118812 L17.5709378,12.5790792 C16.0016495,13.8627646 15,15.8144084 15,18 C15,19.4947941 15.4685333,20.8801564 16.2667527,22.0172395 Z" id="Combined-Shape" fill="#7383BF"></path>
                    <g id="Group-8" transform="translate(15.000000, 11.000000)" fill="#26B99A">
                        <g id="Oval-2">
                            <g id="path-1-link" transform="translate(1.618605, 1.618605)">
                                <path d="M5.39534901,10.790698 C2.41558003,10.790698 0,8.375118 0,5.39534901 C0,2.41558003 2.41558003,0 5.39534901,0 C8.375118,0 10.790698,2.41558003 10.790698,5.39534901 C10.790698,8.375118 8.375118,10.790698 5.39534901,10.790698 Z M2.57505294,4.90486274 C2.23644283,4.90486274 1.9619451,5.17936047 1.9619451,5.51797058 C1.9619451,5.85658069 2.23644283,6.13107842 2.57505294,6.13107842 L8.21564508,6.13107842 C8.55425519,6.13107842 8.82875292,5.85658069 8.82875292,5.51797058 C8.82875292,5.17936047 8.55425519,4.90486274 8.21564508,4.90486274 L2.57505294,4.90486274 Z" id="Combined-Shape"></path>
                            </g>
                        </g>
                    </g>
                </g>
            </g>
        </g>
    </g>
</svg>