<svg height="40" width="40" viewBox="0 0 40 40" xmlns="http://www.w3.org/2000/svg">
  <path d="M20 32.636c-8.547 0-15.477-6.842-15.477-15.282 0-8.44 6.93-15.282 15.477-15.282s15.477 6.842 15.477 15.282c0 4.381-1.868 8.332-4.86 11.119l-9.07 8.748-.542.536a.59.59 0 0 1-1.005-.42zM17.054 21.32l-3.313-3.477a.986.986 0 0 0-1.426-.002 1.078 1.078 0 0 0-.002 1.491l4.058 4.26a1.18 1.18 0 0 0 1.708 0l10.51-11.029a1.078 1.078 0 0 0 0-1.489.98.98 0 0 0-1.42 0L17.396 21.32a.236.236 0 0 1-.342 0z" fill="#29b899" fill-rule="evenodd"/>
</svg>
