<?xml version="1.0" encoding="UTF-8"?>
<svg width="12px" height="12px" viewBox="0 0 12 12" version="1.1" xmlns="http://www.w3.org/2000/svg" xmlns:xlink="http://www.w3.org/1999/xlink">
    <!-- Generator: Sketch 48.2 (47327) - http://www.bohemiancoding.com/sketch -->
    <title>Atoms/Icons/Channels/Wahtsapp-Small</title>
    <desc>Created with Sketch.</desc>
    <defs></defs>
    <g id="Atoms" stroke="none" stroke-width="1" fill="none" fill-rule="evenodd" transform="translate(-1067.000000, -1610.000000)">
        <g id="Atoms/Icons/Channels/Wahtsapp-Small" transform="translate(1063.000000, 1606.000000)">
            <g>
                <rect id="Rectangle-6" x="0" y="0" width="20" height="20"></rect>
                <g id="WhatsApp-Icon" transform="translate(4.000000, 4.000000)" fill="#545454" fill-rule="nonzero">
                    <g id="WhatsApp_Small">
                        <path d="M0,12 L0.848874598,8.91875923 C0.32649023,8.01772526 0.050457581,6.99261448 0.050457581,5.94682422 C0.050457581,2.6676514 2.73361365,0 6.02522879,0 C7.62503092,0 9.12391788,0.620384047 10.2517932,1.74298375 C11.3796686,2.86558346 12,4.36041359 12,5.94977843 C12,9.22895126 9.31684393,11.8966027 6.02522879,11.8966027 L6.0222607,11.8966027 C5.02201336,11.8966027 4.03957457,11.6454948 3.16695523,11.1728213 L0,12 Z M4.47885234,3.36779911 C4.36309671,3.11078287 4.2414049,3.10487445 4.13158546,3.10192024 C4.04254267,3.09896603 3.93865941,3.09896603 3.83477616,3.09896603 C3.7308929,3.09896603 3.56467969,3.13737075 3.42221123,3.29098966 C3.27974277,3.44460857 2.8820183,3.816839 2.8820183,4.5760709 C2.8820183,5.3323486 3.43705169,6.06499261 3.51422211,6.16838996 C3.59139253,6.2717873 4.58570369,7.87592319 6.15582488,8.49335303 C7.4617858,9.00738552 7.72891417,8.90398818 8.01088301,8.8774003 C8.29581994,8.85081241 8.92505565,8.50516987 9.05565174,8.14475628 C9.18327974,7.78434269 9.18327974,7.47710487 9.14469453,7.41211226 C9.10610932,7.34711965 9.00222607,7.30871492 8.84788523,7.23190547 C8.6935444,7.15509601 7.93371259,6.78286558 7.79124413,6.72968981 C7.64877566,6.67651403 7.54489241,6.65288035 7.44397724,6.80649926 C7.34009399,6.96011817 7.04328469,7.30576071 6.9542419,7.40915805 C6.86519911,7.51255539 6.77318823,7.52437223 6.61884739,7.44756278 C6.46450655,7.37075332 5.96586693,7.20827179 5.37521642,6.68242245 C4.91516201,6.27474151 4.60351224,5.76957164 4.51446945,5.61595273 C4.42542666,5.46233383 4.50556517,5.37961595 4.58273559,5.3028065 C4.65100173,5.23485968 4.73707643,5.1225997 4.81424685,5.03397341 C4.89141726,4.94534712 4.9181301,4.88035451 4.96858768,4.77695716 C5.01904526,4.67355982 4.99530052,4.58493353 4.95671531,4.50812408 C4.9181301,4.43131462 4.61538462,3.67208272 4.47885234,3.36779911 Z" id="Combined-Shape"></path>
                    </g>
                </g>
            </g>
        </g>
    </g>
</svg>