<?xml version="1.0" encoding="UTF-8"?>
<svg width="18px" height="16px" viewBox="0 0 20 18" version="1.1" xmlns="http://www.w3.org/2000/svg" xmlns:xlink="http://www.w3.org/1999/xlink">
    <!-- Generator: Sketch 48.2 (47327) - http://www.bohemiancoding.com/sketch -->
    <title>Atoms/Icons/Users-Small</title>
    <desc>Created with Sketch.</desc>
    <defs></defs>
    <g id="Atoms" stroke="none" stroke-width="1" fill="none" fill-rule="evenodd" transform="translate(-1558.000000, -915.000000)">
        <g id="Atoms/Icons/Users-Small" transform="translate(1553.000000, 909.000000)">
            <g>
                <rect id="Rectangle-8" x="0" y="0" width="30" height="30"></rect>
                <g id="Users" transform="translate(5.400000, 6.600000)" fill-rule="nonzero">
                    <path d="M19.4940205,14.1387547 C19.4940205,15.6845468 18.2410542,16.9375131 16.6952621,16.9375131 C15.14947,16.9375131 13.8960205,15.6845468 13.8960205,14.1387547 C13.8960205,12.5929626 15.14947,11.3399963 16.6952621,11.3399963 C18.2410542,11.3399963 19.4940205,12.5929626 19.4940205,14.1387547 Z M18.4109512,13.3663419 L18.5463967,13.3663419 C18.5463967,13.2703858 18.509224,13.1776559 18.4405588,13.1082444 C18.2975104,12.9659629 18.0660214,12.9659629 17.924259,13.1077253 L16.441383,14.5906013 L15.7263293,13.8755476 C15.6563478,13.8063158 15.5635469,13.7687102 15.4677128,13.7687102 C15.3727671,13.7687102 15.2793707,13.8067228 15.2105458,13.8755476 C15.0682137,14.0178798 15.0682137,14.2507355 15.2108057,14.3925568 C15.3323755,14.5138239 15.3323755,14.5138239 15.697506,14.878046 C16.0612018,15.2408381 16.0612018,15.2408381 16.1842161,15.3635518 C16.3261067,15.5069791 16.558109,15.5069791 16.7005131,15.3630355 L18.4400026,13.6249983 C18.509224,13.5550278 18.5463967,13.4622979 18.5463967,13.3663419 L18.4109512,13.3663419 Z" id="Combined-Shape" fill="#29B899"></path>
                    <path d="M12.9534513,14.03232 C12.9534513,12.1079741 14.3410567,10.5416335 16.2648675,10.5416335 C16.3670784,10.5416335 16.6405324,10.5378876 16.7400675,10.5464497 C15.7805702,9.14707135 14.1714189,8.17794162 12.3460729,8.17794162 L12.0801108,8.17794162 C9.13847295,8.17794162 6.56554322,10.6962876 6.56554322,13.6373903 L6.56554322,16.2049686 L13.7700675,16.2049686 C13.261154,15.6698335 12.9534513,14.8853254 12.9534513,14.03232" id="Fill-7" fill="#7382BE"></path>
                    <path d="M15.7793929,3.86614054 C15.7793929,5.83597297 14.1825497,7.43228108 12.2132524,7.43228108 C10.24342,7.43228108 8.64657673,5.83597297 8.64657673,3.86614054 C8.64657673,1.89630811 10.24342,0.3 12.2132524,0.3 C14.1825497,0.3 15.7793929,1.89630811 15.7793929,3.86614054" id="Fill-9" fill="#7382BE"></path>
                    <path d="M7.01735674,6.05841081 C7.01735674,7.41604865 5.91658376,8.51682162 4.55894595,8.51682162 C3.20077297,8.51682162 2.1,7.41604865 2.1,6.05841081 C2.1,4.70077297 3.20077297,3.6 4.55894595,3.6 C5.91658376,3.6 7.01735674,4.70077297 7.01735674,6.05841081" id="Fill-11" fill="#7382BE"></path>
                    <path d="M5.92732789,13.1022016 C6.06111167,11.539607 6.41965221,11.064407 6.98636032,10.2183584 C6.32279276,9.63292054 5.3408198,9.19999622 4.38613872,9.19999622 C2.30820899,9.19999622 0.575976563,10.8846016 0.575976563,12.9630665 L0.575976563,14.5995097 L5.92732789,14.5995097 L5.92732789,13.1022016 Z" id="Fill-13" fill="#7382BE"></path>
                </g>
            </g>
        </g>
    </g>
</svg>