<?xml version="1.0" encoding="UTF-8"?>
<svg width="24px" height="23px" viewBox="0 0 24 23" version="1.1" xmlns="http://www.w3.org/2000/svg" xmlns:xlink="http://www.w3.org/1999/xlink">
    <!-- Generator: Sketch 50.2 (55047) - http://www.bohemiancoding.com/sketch -->
    <title>Atoms/Icons/RCS1-Small</title>
    <desc>Created with Sketch.</desc>
    <defs/>
    <g id="Canvas" stroke="none" stroke-width="1" fill="none" fill-rule="evenodd">
        <g id="Flow-Icons" transform="translate(-833.000000, -267.000000)">
            <g id="Atoms/Icons/RCS1-Small" transform="translate(830.000000, 263.000000)">
                <g>
                    <rect id="Rectangle-2" x="0" y="0" width="30" height="30"/>
                    <g id="SMS_Large.svg" transform="translate(3.400000, 4.200000)" fill-rule="nonzero">
                        <path d="M16.3382673,16.3096459 C16.3382673,17.3899646 15.5235899,18.2655663 14.5188088,18.2655663 L8.21733306,18.293338 L4.52599936,22.6574607 L4.52599936,18.293338 L1.91585728,18.293338 C0.911076247,18.293338 0.0963988952,17.4177363 0.0963988952,16.3378143 L0.0963988952,7.95036725 C0.0963988952,6.8700485 0.911076247,5.9944468 1.91585728,5.9944468 L14.5188088,5.96667508 C15.5235899,5.96667508 16.3382673,6.84227678 16.3382673,7.92219882 L16.3382673,16.3096459 Z" id="Fill-1" fill="#7383BF"/>
                        <path d="M8.39397707,11.3506845 L9.48984424,8.07574384 C9.48984424,8.07574384 9.50334801,8.03515046 9.50334801,7.97457107 C9.50284787,7.80204923 9.36811029,7.66225063 9.20206398,7.66225063 C9.10933812,7.66225063 9.02641499,7.70646841 8.97099954,7.77440018 L4.95960124,12.2700144 C4.92019025,12.3157855 4.90258534,12.3856848 4.90258534,12.454445 C4.90258534,12.6265526 5.03752297,12.7661441 5.20376934,12.7661441 L7.29957184,13.1602997 L6.31644547,16.3114852 C6.31644547,16.3114852 6.30294171,16.3521821 6.30294171,16.412658 C6.30334182,16.5850763 6.43817942,16.7246678 6.60422573,16.7246678 C6.69685157,16.7246678 6.77987472,16.6805535 6.83529018,16.6126218 L10.9236391,11.9809629 C10.9631501,11.9351918 10.980755,11.865189 10.980755,11.7964288 C10.980755,11.6244247 10.8459174,11.4847297 10.679571,11.4847297 L8.39397707,11.3506845 Z" id="Shape" fill="#FFFFFF" transform="translate(7.941670, 12.193459) rotate(-355.000000) translate(-7.941670, -12.193459) "/>
                        <path d="M8.40139753,0.324182182 C7.39624737,0.324182182 6.58157,1.19978389 6.58157,2.27970588 L6.58157,4.70853854 L15.8361128,4.68830487 C16.9303933,4.83677917 17.6555712,5.92767092 17.6555712,6.64382855 C17.6555712,7.35998618 17.6555712,13.9600818 17.6555712,13.9600818 L20.2395048,17.0149677 L20.2395048,12.650845 L21.00398,12.650845 C22.008761,12.650845 22.8234384,11.7752433 22.8234384,10.6953214 L22.8234384,2.30787431 C22.8234384,1.22755557 22.008761,0.351953868 21.00398,0.351953868 L8.40139753,0.324182182 Z" id="Fill-3" fill="#26B99A"/>
                    </g>
                </g>
            </g>
        </g>
    </g>
</svg>