<?xml version="1.0" encoding="UTF-8"?>
<svg width="12px" height="12px" viewBox="0 0 12 12" version="1.1" xmlns="http://www.w3.org/2000/svg" xmlns:xlink="http://www.w3.org/1999/xlink">
    <!-- Generator: Sketch 48.2 (47327) - http://www.bohemiancoding.com/sketch -->
    <title>Atoms/Icons/Channels/Telegram-Small</title>
    <desc>Created with Sketch.</desc>
    <defs></defs>
    <g id="Atoms" stroke="none" stroke-width="1" fill="none" fill-rule="evenodd" transform="translate(-987.000000, -1610.000000)">
        <g id="Atoms/Icons/Channels/Telegram-Small" transform="translate(983.000000, 1606.000000)">
            <g>
                <rect id="Rectangle-6" x="0" y="0" width="20" height="20"></rect>
                <g id="Telegram-Icon" transform="translate(4.000000, 4.000000)">
                    <circle id="Oval-2" fill="#545454" cx="6" cy="6" r="6"></circle>
                    <path d="M8.40662203,3.03683036 C8.48028311,3.09040205 8.51041674,3.16182991 8.49702382,3.25111607 L7.63988096,8.39397321 C7.62872019,8.45870568 7.59300626,8.50892839 7.5327381,8.54464286 C7.50148795,8.56250009 7.46689008,8.57142857 7.42894346,8.57142857 C7.40438976,8.57142857 7.37760432,8.56584827 7.34858632,8.5546875 L5.83184524,7.93526786 L5.02157739,8.92299107 C4.98139862,8.97433061 4.92671166,9 4.85751489,9 C4.82849689,9 4.80394356,8.99553576 4.78385417,8.98660714 C4.74144325,8.97098206 4.70740341,8.94475465 4.68173364,8.90792411 C4.65606387,8.87109357 4.64322917,8.83035737 4.64322917,8.78571429 L4.64322917,7.6171875 L7.53608632,4.07142857 L3.95684524,7.16852679 L2.6343006,6.62611607 C2.5517109,6.59486592 2.50706849,6.5334826 2.50037203,6.44196429 C2.49590772,6.35267812 2.53162165,6.28683057 2.60751489,6.24441964 L8.17894346,3.03013393 C8.21242577,3.01004454 8.2481397,3 8.28608632,3 C8.3307294,3 8.37090757,3.01227666 8.40662203,3.03683036 Z" id="" fill="#FFFFFF"></path>
                </g>
            </g>
        </g>
    </g>
</svg>