<?xml version="1.0" encoding="UTF-8"?>
<svg width="37px" height="37px" viewBox="0 0 37 37" version="1.1" xmlns="http://www.w3.org/2000/svg" xmlns:xlink="http://www.w3.org/1999/xlink">
    <!-- Generator: Sketch 48.2 (47327) - http://www.bohemiancoding.com/sketch -->
    <title>Atoms/Icons/WhatsApp-Large</title>
    <desc>Created with Sketch.</desc>
    <defs>
        <path d="M0.858615105,33.9709476 L3.2118565,25.3847966 C1.76493105,22.8725524 0.993767483,20.0184522 1.00171762,17.1007508 C1.00171762,7.95809 8.44304854,0.524709231 17.5857094,0.524709231 C22.0218874,0.524709231 26.1877607,2.24988958 29.3121657,5.38224469 C32.4445208,8.51459979 34.1697011,12.6804731 34.161751,17.108701 C34.161751,26.2513618 26.7204201,33.6847426 17.5777592,33.6847426 C17.5777592,33.6847426 17.5777592,33.6847426 17.5777592,33.6847426 L17.5698091,33.6847426 C14.7952103,33.6847426 12.0683123,32.9851303 9.64351965,31.6654071 L0.858615105,33.9709476 Z M10.0569269,28.6602542 L10.5577857,28.9623595 C12.6725229,30.2184816 15.0973156,30.8783432 17.5698091,30.8862934 L17.5777592,30.8862934 C25.1701428,30.8862934 31.3553516,24.7090347 31.3553516,17.108701 C31.3553516,13.4277862 29.9243264,9.96947539 27.3246307,7.36182951 C24.724935,4.75418364 21.258674,3.32315846 17.5777592,3.32315846 C9.97742553,3.32315846 3.79221671,9.50041714 3.79221671,17.1007508 C3.79221671,19.7004466 4.51567944,22.2365412 5.89900378,24.4307798 L6.22495951,24.955489 L4.83368504,30.0356284 L10.0569269,28.6602542 Z" id="path-1"></path>
        <filter x="-8.3%" y="-5.2%" width="116.5%" height="116.4%" filterUnits="objectBoundingBox" id="filter-2">
            <feOffset dx="0" dy="1" in="SourceAlpha" result="shadowOffsetOuter1"></feOffset>
            <feGaussianBlur stdDeviation="0.75" in="shadowOffsetOuter1" result="shadowBlurOuter1"></feGaussianBlur>
            <feColorMatrix values="0 0 0 0 0   0 0 0 0 0   0 0 0 0 0  0 0 0 0.2 0" type="matrix" in="shadowBlurOuter1"></feColorMatrix>
        </filter>
        <linearGradient x1="49.9988131%" y1="99.9884954%" x2="49.9988131%" y2="-0.0257903494%" id="linearGradient-3">
            <stop stop-color="#F9F9F9" offset="0%"></stop>
            <stop stop-color="#FFFFFF" offset="100%"></stop>
        </linearGradient>
    </defs>
    <g id="Atoms" stroke="none" stroke-width="1" fill="none" fill-rule="evenodd" transform="translate(-1881.000000, -570.000000)">
        <g id="Atoms/Icons/WhatsApp-Large" transform="translate(1874.000000, 563.000000)">
            <g>
                <rect id="Rectangle-2" x="0" y="0" width="50" height="50"></rect>
                <g id="WhatsApp_Large" transform="translate(7.000000, 7.000000)">
                    <g id="WhatsApp_Logo">
                        <g id="shape_4" fill-rule="nonzero">
                            <g id="Group" transform="translate(0.469942, 0.390440)">
                                <g id="Shape">
                                    <use fill="black" fill-opacity="1" filter="url(#filter-2)" xlink:href="#path-1"></use>
                                    <use fill="#FFFFFF" fill-rule="evenodd" xlink:href="#path-1"></use>
                                </g>
                            </g>
                        </g>
                        <path d="M1.90891692,33.7810276 L4.18265692,25.4890318 C2.7834323,23.0642391 2.04406929,20.3055406 2.04406929,17.491191 C2.04406929,8.6665358 9.23099573,1.4875595 18.0477008,1.4875595 C22.3328262,1.4875595 26.3476469,3.15708887 29.3687,6.17814202 C32.3897532,9.19919517 34.0513324,13.2219659 34.0513324,17.4991412 C34.0513324,26.3237964 26.8644059,33.5027727 18.0477008,33.5027727 C18.0477008,33.5027727 18.0477008,33.5027727 18.0477008,33.5027727 L18.0397507,33.5027727 C15.3605536,33.5027727 12.7290573,32.8270108 10.3917162,31.5549885 L1.90891692,33.7810276 Z" id="shape_3" fill="#33CA40" fill-rule="nonzero"></path>
                        <g id="shape_2" transform="translate(1.109486, 0.791481)" fill="url(#linearGradient-3)" fill-rule="nonzero">
                            <path d="M0.219070521,33.5699072 L2.57231192,24.9837562 C1.12538647,22.471512 0.354222898,19.6174118 0.362173038,16.6997105 C0.362173038,7.55704961 7.80350395,0.123668842 16.9461648,0.123668842 C21.3823428,0.123668842 25.5482161,1.84884919 28.6726211,4.9812043 C31.8049762,8.11355941 33.5301565,12.2794327 33.5222064,16.7076606 C33.5222064,25.8503214 26.0808755,33.2837022 16.9382147,33.2837022 C16.9382147,33.2837022 16.9382147,33.2837022 16.9382147,33.2837022 L16.9302645,33.2837022 C14.1556657,33.2837022 11.4287677,32.5840899 9.00397507,31.2643667 L0.219070521,33.5699072 Z M9.41738234,28.2592138 L9.91824115,28.5613191 C12.0329784,29.8174412 14.457771,30.4773028 16.9302645,30.485253 L16.9382147,30.485253 C24.5305982,30.485253 30.715807,24.3079943 30.715807,16.7076606 C30.715807,13.0267458 29.2847819,9.568435 26.6850861,6.96078912 C24.0853904,4.35314325 20.6191294,2.92211807 16.9382147,2.92211807 C9.33788094,2.92211807 3.15267213,9.09937675 3.15267213,16.6997105 C3.15267213,19.2994062 3.87613486,21.8355008 5.25945919,24.0297394 L5.58541493,24.5544486 L4.19414045,29.634588 L9.41738234,28.2592138 Z" id="Shape"></path>
                        </g>
                        <g id="shape_1" transform="translate(9.457133, 9.775139)" fill="#FFFFFF">
                            <path d="M4.44854493,0.775580311 C4.13848947,0.083918143 3.81253374,0.0680178633 3.51837856,0.0600677234 C3.27987437,0.0521175836 3.00161947,0.0521175836 2.72336458,0.0521175836 C2.44510968,0.0521175836 1.99990185,0.155469402 1.61829514,0.568876675 C1.23668842,0.982283948 0.171369682,1.98400157 0.171369682,4.02718752 C0.171369682,6.06242332 1.65804584,8.03405801 1.86474947,8.3123129 C2.07145311,8.5905678 4.73474996,12.9074937 8.94037395,14.569073 C12.4384355,15.9523973 13.1539481,15.6741424 13.9092114,15.6025912 C14.6724248,15.5310399 16.3578544,14.6008735 16.7076606,13.6309565 C17.0495166,12.6610394 17.0495166,11.8342249 16.9461648,11.6593218 C16.842813,11.4844187 16.5645581,11.3810669 16.1511508,11.1743633 C15.7377435,10.9676596 13.7025077,9.96594199 13.320901,9.82283948 C12.9392943,9.67973696 12.6610394,9.61613584 12.3907347,10.0295431 C12.1124798,10.4429504 11.3174658,11.3731167 11.0789616,11.6513716 C10.8404574,11.9296265 10.594003,11.9614271 10.1805958,11.7547235 C9.7671885,11.5480198 8.431565,11.1107621 6.84948717,9.69563724 C5.61721549,8.59851794 4.7824508,7.23904402 4.54394661,6.82563675 C4.30544241,6.41222947 4.52009619,6.18962556 4.72679982,5.98292192 C4.90965304,5.8000687 5.1402071,5.49796339 5.34691073,5.25945919 C5.55361437,5.020955 5.62516563,4.84605192 5.76031801,4.56779703 C5.89547038,4.28954213 5.83186926,4.05103793 5.72851745,3.8443343 C5.62516563,3.63763066 4.81425136,1.59444472 4.44854493,0.775580311 Z" id="Shape"></path>
                        </g>
                    </g>
                </g>
            </g>
        </g>
    </g>
</svg>