<svg width="40" height="40" viewBox="0 0 40 40" xmlns="http://www.w3.org/2000/svg">
  <g fill="none" fill-rule="evenodd">
    <path d="M28.037685 28.31632c0 1.675063-1.29832 3.032707-2.899603 3.032707l-10.042426.04306-5.88274 6.76669v-6.76669H5.05323c-1.601282 0-2.899603-1.357643-2.899603-3.03209V15.355034c0-1.675063 1.29832-3.032707 2.899603-3.032707l20.084852-.04306c1.601282 0 2.899603 1.357643 2.899603 3.03209V28.31632z" fill="#7383BF"/>
    <path d="M14.41602 4.502653c-1.60187 0-2.90019 1.357644-2.90019 3.032092v3.76597l14.748617-.031373c1.743914.230214 2.899603 1.92167 2.899603 3.032092V25.64548l4.117918 4.736683v-6.76669h1.218316c1.601282 0 2.899603-1.357643 2.899603-3.03209V7.57842c0-1.675062-1.29832-3.032706-2.899603-3.032706l-20.084264-.04306z" fill="#26B99A"/>
  </g>
</svg>