<?xml version="1.0" encoding="UTF-8"?>
<svg width="24px" height="25px" viewBox="0 0 24 25" version="1.1" xmlns="http://www.w3.org/2000/svg" xmlns:xlink="http://www.w3.org/1999/xlink">
    <!-- Generator: Sketch 46.2 (44496) - http://www.bohemiancoding.com/sketch -->
    <title>icon/campaign-reports-small</title>
    <desc>Created with Sketch.</desc>
    <defs></defs>
    <g id="All-Reports" stroke="none" stroke-width="1" fill="none" fill-rule="evenodd">
        <g id="FINAL-AllReports-Filter" transform="translate(-241.000000, -472.000000)" fill="#7383BF">
            <g id="icon/campaign" transform="translate(241.000000, 472.000000)">
                <path d="M23.6250282,0.57586851 C23.4910994,0.482118398 23.3169921,0.428546906 23.1428847,0.428546906 C22.9955631,0.428546906 22.8482415,0.468725525 22.7143128,0.549082763 L0.428571939,13.4062409 C0.147321604,13.5669554 -0.0133928731,13.8749915 -1.08420217e-19,14.1964205 C0.0267857462,14.5312423 0.227678843,14.8124926 0.535714924,14.9330285 L5.8258998,17.1026739 L20.1428812,4.7142663 L8.57143879,18.8973189 L8.57143879,23.5714316 C8.57143879,23.9330392 8.79911763,24.2544682 9.13393946,24.375004 C9.22768957,24.4151826 9.33483256,24.4285755 9.42858267,24.4285755 C9.68304726,24.4285755 9.92411897,24.3214325 10.0848335,24.1205394 L13.3259087,20.1696419 L19.3928803,22.6473234 C19.5000232,22.687502 19.6071662,22.7142878 19.7143092,22.7142878 C19.8616308,22.7142878 20.0089524,22.6741091 20.1294883,22.6071448 C20.3571671,22.473216 20.5178816,22.2589301 20.5580602,22.0044655 L23.9866357,1.43301239 C24.0402072,1.09819056 23.9062785,0.776761606 23.6250282,0.57586851 Z" id=""></path>
            </g>
        </g>
    </g>
</svg>