<?xml version="1.0" encoding="UTF-8"?>
<svg width="38px" height="31px" viewBox="0 0 38 31" version="1.1" xmlns="http://www.w3.org/2000/svg" xmlns:xlink="http://www.w3.org/1999/xlink">
    <!-- Generator: Sketch 50.2 (55047) - http://www.bohemiancoding.com/sketch -->
    <title>Atoms/Icons/Variable-Large</title>
    <desc>Created with Sketch.</desc>
    <defs></defs>
    <g id="Panel" stroke="none" stroke-width="1" fill="none" fill-rule="evenodd">
        <g id="Icons-Exploration-2" transform="translate(-110.000000, -884.000000)">
            <g id="Atoms/Icons/Variable-Large" transform="translate(104.000000, 875.000000)">
                <g>
                    <rect id="Rectangle-15" x="0" y="0" width="50" height="50"></rect>
                    <g id="html-Icon" transform="translate(6.000000, 9.000000)">
                        <g id="Group-6">
                            <path d="M9.29027289,30.9414705 C7.48690168,30.4320436 6.12929936,29.5940489 5.21742521,28.4274613 C4.30555106,27.2608737 3.84962083,25.7198805 3.84962083,23.8044353 L3.84962083,20.763172 C3.84962083,18.2873572 2.76965201,17.0494684 0.609681961,17.0494684 L0.609681961,14.8334725 C2.76965201,14.8334725 3.84962083,13.6006779 3.84962083,11.1350517 L3.84962083,7.95624379 C3.86999791,6.09174134 4.32592814,4.58640744 5.21742521,3.44019692 C6.10892228,2.2939864 7.4665246,1.46108592 9.29027289,0.941470479 L9.87101665,2.69898449 C7.74161222,3.38161653 6.67692597,5.15948974 6.67692597,8.03265744 L6.67692597,11.119769 C6.67692597,13.4325671 5.82619582,15.042332 4.12470998,15.9491118 C5.82619582,16.8660803 6.67692597,18.4911277 6.67692597,20.8243029 L6.67692597,23.9725454 C6.70749159,26.7743933 7.77217783,28.511513 9.87101665,29.1839565 L9.29027289,30.9414705 Z M28.4562998,29.1839565 C30.524573,28.5217015 31.5943534,26.8355238 31.6656732,24.1253727 L31.6656732,20.763172 C31.6656732,18.4096197 32.587722,16.804949 34.4318474,15.9491118 C32.587722,15.1136517 31.6656732,13.5089811 31.6656732,11.1350517 L31.6656732,8.03265744 C31.6656732,5.15948974 30.6009869,3.38161653 28.4715825,2.69898449 L29.0523262,0.941470479 C30.8556975,1.45089738 32.2107527,2.27870367 33.1175326,3.42491419 C34.0243124,4.57112471 34.4827898,6.086647 34.4929783,7.97152652 L34.4929783,11.1808999 C34.4929783,13.6159605 35.5729471,14.8334725 37.7329172,14.8334725 L37.7329172,17.0494684 C35.5729471,17.0494684 34.4929783,18.2873572 34.4929783,20.763172 L34.4929783,23.8502835 C34.4929783,25.7657287 34.0319539,27.2990806 33.1098912,28.4503854 C32.1878285,29.6016902 30.8353204,30.4320436 29.0523262,30.9414705 L28.4562998,29.1839565 Z" id="{-}" fill="#29B899"></path>
                            <path d="M13.1357703,13.0679278 C12.4316336,12.3637912 12.4316336,11.2221601 13.1357703,10.5180235 C13.8399069,9.81388689 14.9815379,9.81388689 15.6856746,10.5180235 L19.1626911,13.99504 L22.6397076,10.5180235 C23.3438442,9.81388689 24.4854753,9.81388689 25.1896119,10.5180235 C25.8937485,11.2221601 25.8937485,12.3637912 25.1896119,13.0679278 L21.7125954,16.5449443 L25.1896119,20.0219609 C25.8937485,20.7260975 25.8937485,21.8677285 25.1896119,22.5718652 C24.4854753,23.2760018 23.3438442,23.2760018 22.6397076,22.5718652 L19.1626911,19.0948486 L15.6856746,22.5718652 C14.9815379,23.2760018 13.8399069,23.2760018 13.1357703,22.5718652 C12.4316336,21.8677285 12.4316336,20.7260975 13.1357703,20.0219609 L16.6127868,16.5449443 L13.1357703,13.0679278 Z" id="Combined-Shape" fill="#7383BF" fill-rule="nonzero"></path>
                        </g>
                    </g>
                </g>
            </g>
        </g>
    </g>
</svg>