<?xml version="1.0" encoding="UTF-8"?>
<svg width="24px" height="24px" viewBox="0 0 24 24" version="1.1" xmlns="http://www.w3.org/2000/svg" xmlns:xlink="http://www.w3.org/1999/xlink">
    <!-- Generator: Sketch 46.2 (44496) - http://www.bohemiancoding.com/sketch -->
    <title>icon/finance-reports-small</title>
    <desc>Created with Sketch.</desc>
    <defs></defs>
    <g id="All-Reports" stroke="none" stroke-width="1" fill="none" fill-rule="evenodd">
        <g id="FINAL-AllReports-Filter" transform="translate(-242.000000, -392.000000)">
            <g id="icon/finance-reports-small" transform="translate(242.000000, 392.000000)">
                <g>
                    <rect id="Rectangle-16" fill="#26B99A" x="12" y="11.3684211" width="10.7368421" height="12.1893764"></rect>
                    <polygon id="+-copy-4" fill="#7383BF" points="5.84025493 7.46299342 4.16940789 7.46299342 4.16940789 6.51747533 5.84025493 6.51747533 5.84025493 4.83367599 6.78577303 4.83367599 6.78577303 6.51747533 8.45662007 6.51747533 8.45662007 7.46299342 6.78577303 7.46299342 6.78577303 9.12520559 5.84025493 9.12520559"></polygon>
                    <polygon id="x-copy-4" fill="#7383BF" points="5.74064556 17.6419613 4.51942845 15.7863898 5.69315378 15.7863898 6.42927632 16.9940378 7.17218339 15.7863898 8.34590872 15.7863898 7.11112253 17.6419613 8.4035773 19.5789474 7.2264597 19.5789474 6.42927632 18.2797081 5.62870066 19.5789474 4.45497533 19.5789474"></polygon>
                    <polygon id="–" fill="#7383BF" points="15.5119243 7.59128289 15.5119243 6.59827303 19.2249178 6.59827303 19.2249178 7.59128289"></polygon>
                    <path d="M14.90625,17.3665707 L14.90625,16.4210526 L19.1934622,16.4210526 L19.1934622,17.3665707 L14.90625,17.3665707 Z M14.90625,19.0374178 L14.90625,18.0918997 L19.1934622,18.0918997 L19.1934622,19.0374178 L14.90625,19.0374178 Z" id="=-copy-4" fill="#F8F8F8"></path>
                    <rect id="Rectangle-14" fill="#7383BF" x="10.7368421" y="0.631578947" width="1.26315789" height="23.3684211"></rect>
                    <rect id="Rectangle-18" fill="#7383BF" x="0" y="11.3684211" width="23.3684211" height="1.26315789"></rect>
                    <path d="M1.89473684,1.63157895 C1.40058733,1.63157895 1,2.03216628 1,2.52631579 L1,22.1052632 C1,22.5994127 1.40058733,23 1.89473684,23 L21.4736842,23 C21.9678337,23 22.3684211,22.5994127 22.3684211,22.1052632 L22.3684211,2.52631579 C22.3684211,2.03216628 21.9678337,1.63157895 21.4736842,1.63157895 L1.89473684,1.63157895 Z" id="Combined-Shape" stroke="#7383BF" stroke-width="2"></path>
                </g>
            </g>
        </g>
    </g>
</svg>