<svg width="40" height="40" viewBox="0 0 40 40" xmlns="http://www.w3.org/2000/svg" xmlns:xlink="http://www.w3.org/1999/xlink">
  <defs>
    <path id="a" d="M11.454546 2.3496v2.118354H0V.23125h11.454546V2.3496z"/>
  </defs>
  <g fill="none" fill-rule="evenodd">
    <path d="M15.827273 24.968656c0 .848292-.656628 1.535835-1.46648 1.535835l-5.078975.02181-2.975206 3.42681V26.5263h-2.10377c-.80985 0-1.466478-.687544-1.466478-1.535525v-6.58602c0-.848293.656628-1.535836 1.46648-1.535836l10.15795-.02181c.80985 0 1.46648.68754 1.46648 1.53552v6.58602z" fill="#7383BF"/>
    <path d="M26.393408 32.79245l-.53924-3.850397c-.009733-.063827-.024066-.12528-.048188-.184833-.070294-.18989-.20755-.351104-.393254-.448964-.24033-.123642-.521728-.131485-.759033-.016793l-3.637705 1.771127c-.402564.195078-.55629.675732-.344823 1.072622.211468.39689.709127.559685 1.109858.364694l1.6483-.802232c-1.302406 1.89812-3.80587 3.00525-6.295165 2.553344-2.109125-.380508-3.868294-1.76744-4.708356-3.707242-.178056-.412122-.659984-.614093-1.078328-.451667-.418345.16242-.61227.62774-.434213 1.03986.82055 1.89691 2.3377 3.37577 4.21754 4.173712.55254.234537 1.13806.410405 1.74502.520967 3.00735.545495 6.03684-.725935 7.734488-2.95634l.154226 1.09672c.040914.295076.240933.53484.5035.646294.129384.05492.27443.079286.422544.062564.44967-.04791.76385-.44315.702842-.88345m-9.111935-20.9206c-.21223-.397214-.708815-.56042-1.11017-.36396l-1.95077.949822c.424346-.92986 1.09531-1.740328 1.976458-2.360357 1.42245-1.000186 3.222276-1.395502 4.936703-1.083906 2.248046.406605 4.10843 1.97406 4.857624 4.089846.14973.421725.616756.654572 1.046176.52107.42942-.1335.65652-.583874.507103-1.006333-.94821-2.679556-3.304717-4.665235-6.15332-5.180548-2.15105-.389654-4.403688.10328-6.1804 1.351922-.798834.561534-1.455885 1.252462-1.96594 2.030874l-.137024-.87486c-.070033-.438075-.48941-.749323-.938527-.69426-.447905.05644-.756927.45647-.686755.896335l.62245 3.950602c.03983.25742.204844.48232.441818.605404.019926.01019.038642.019.05919.02772.222994.09466.478067.09046.694377-.014973l3.636944-1.77145c.402114-.196138.556602-.67647.344062-1.07295" fill="#38BFA3"/>
    <path d="M31.372728 15.208862c-3.211282 0-5.727273 1.261878-5.727273 2.872256 0 1.011673 2.554936 2.233977 5.727273 2.233977 2.622518 0 4.939772-.805508 5.727272-1.645483v-.588494c0-1.610378-2.51599-2.872256-5.727272-2.872256" fill="#7F8FC5"/>
    <path d="M25.645455 19.269785v1.68378c0 1.011673 2.554364 2.233978 5.727273 2.233978 2.621945 0 4.939772-.805508 5.727272-1.646122v-2.07568c-1.223345.91657-3.560645 1.48783-5.727272 1.48783-2.270864 0-4.660855-.64338-5.727273-1.68378" fill="#7F8FC5"/>
    <path d="M25.645455 22.142042v1.68378c0 1.011672 2.554364 2.233977 5.727273 2.233977 2.621945 0 4.939772-.80551 5.727272-1.64549v-2.07632c-1.223918.91657-3.561218 1.48783-5.727272 1.48783-2.270864 0-4.660855-.64339-5.727273-1.68378" fill="#7F8FC5"/>
    <g transform="translate(25.645 24.783)">
      <mask id="b" fill="#fff">
        <use xlink:href="#a"/>
      </mask>
      <path d="M0 .23125v1.36464c0 1.610378 2.51599 2.872255 5.727273 2.872255 3.211282 0 5.727272-1.261877 5.727272-2.872256V.4272c-1.223918.91657-3.561218 1.48783-5.727272 1.48783C3.45641 1.91503 1.066418 1.271643 0 .23125" fill="#7F8FC5" mask="url(#b)"/>
    </g>
  </g>
</svg>