<svg width="34px" height="31px" viewBox="0 0 34 31" version="1.1" xmlns="http://www.w3.org/2000/svg" xmlns:xlink="http://www.w3.org/1999/xlink">
    <!-- Generator: Sketch 48.2 (47327) - http://www.bohemiancoding.com/sketch -->
    <title>Atoms/Icons/Webhook-Large</title>
    <desc>Created with Sketch.</desc>
    <defs></defs>
    <g id="Atoms" stroke="none" stroke-width="1" fill="none" fill-rule="evenodd" transform="translate(-1741.000000, -503.000000)">
        <g id="Atoms/Icons/Webhook-Large" transform="translate(1733.000000, 494.000000)">
            <g>
                <rect id="Rectangle-7" x="0" y="0" width="50" height="50"></rect>
                <g id="Webhook.svg" transform="translate(8.000000, 9.000000)" fill-rule="nonzero">
                    <g id="Group-3" transform="translate(0.000000, 14.029509)" fill="#7483BE">
                        <path d="M25.3168857,7.20934841 C24.6579334,7.20934841 24.1123143,7.74477114 24.1139334,8.38791205 C24.1139334,9.03263705 24.6595524,9.56647568 25.3185048,9.56489159 C25.9774571,9.56489159 26.5214571,9.03105295 26.5214571,8.38632795 C26.5214571,7.74318705 25.974219,7.20934841 25.3168857,7.20934841 M-0.000161904762,7.93961432 C0.0241238095,7.7336825 0.0451714286,7.52775068 0.0726952381,7.32181886 C0.249171429,6.00227114 0.718695238,4.79044159 1.4926,3.69741886 C2.59840952,2.14184159 4.08469524,1.08050068 5.93040952,0.505475682 C6.27526666,0.3977575 6.63307619,0.323305227 7.0038381,0.228259773 C7.15926666,1.01872114 7.3098381,1.78542114 7.46040952,2.55687341 C7.23212381,2.61231659 7.01193334,2.65350295 6.7998381,2.71845068 C4.58498095,3.39644159 3.14402857,4.82529159 2.58545714,7.03193023 C1.8018381,10.1335802 3.74145714,13.301762 6.91155238,14.0795507 C9.22355238,14.6482393 11.2327905,14.0447007 12.8793619,12.359228 C13.7326,11.4863939 14.2345048,10.425053 14.3899334,9.22748023 C14.4660286,8.64928705 14.4627905,8.06000523 14.4935524,7.47705977 C14.4967905,7.39151886 14.4935524,7.30597795 14.4935524,7.20776432 L14.6554571,7.20776432 C17.0306,7.20776432 19.4057429,7.20776432 21.7808857,7.2109325 C21.8747905,7.2109325 21.9136476,7.18558705 21.9508857,7.09687795 C22.4268857,5.9737575 23.2623143,5.22923477 24.4733619,4.95201886 C25.838219,4.64153705 27.0298381,5.00270977 27.9866952,6.0086075 C28.7346952,6.79431659 29.0471714,7.74635523 28.9030762,8.80928023 C28.7136476,10.198528 27.9381238,11.1838325 26.6007905,11.6859893 C25.3185048,12.169137 24.1123143,11.9537007 23.0324095,11.1283893 C22.5288857,10.7450393 22.1710762,10.2444666 21.9427905,9.65835295 C21.9201238,9.5981575 21.8974571,9.56489159 21.8197429,9.56489159 C20.1715524,9.56647568 18.524981,9.56647568 16.8767905,9.56647568 C16.8492666,9.56647568 16.8217429,9.57122795 16.8185048,9.57122795 C16.7035524,10.0163575 16.6128857,10.4551507 16.4801238,10.8812711 C16.1708857,11.8618234 15.6819334,12.7552507 15.0197429,13.5536325 C13.7795524,15.0505984 12.1945048,16.0105575 10.2807905,16.4477666 C9.35469525,16.6584507 8.41240951,16.7059734 7.46850476,16.5903348 C5.43498095,16.3400484 3.69774286,15.5004802 2.28755238,14.0383643 C1.23840952,12.9485098 0.545457143,11.6653961 0.208695238,10.2064484 C0.116409524,9.80250523 0.0824095238,9.38430523 0.0225047619,8.97402568 C0.0160285714,8.93442341 0.00793333336,8.89798932 -0.000161904762,8.85838705 L-0.000161904762,7.93961432" id="Fill-1"></path>
                    </g>
                    <path d="M16.882619,7.08405455 C16.2252857,7.08088636 15.6780476,7.61314091 15.6748095,8.25786591 C15.6715714,8.90100682 16.2155714,9.43642955 16.8745238,9.43959773 C17.5302381,9.44276591 18.0790952,8.91051136 18.0823334,8.26578636 C18.0855714,7.62422955 17.5415714,7.08722273 16.882619,7.08405455 M19.0521429,27.9417795 C19.6317619,27.4063568 20.213,26.86935 20.8039524,26.3244227 C20.8460476,26.3671932 20.8832857,26.4067955 20.9221429,26.4448136 C21.8628095,27.4206136 23.0107143,28.0241523 24.362619,28.2380045 C27.3157619,28.7068955 30.1944286,26.956475 31.0735714,24.168475 C32.0547143,21.0573205 30.2834762,17.7544909 27.1117619,16.7881955 C26.3200476,16.5474136 25.5105238,16.4713773 24.6848095,16.5585023 C23.8752857,16.6424591 23.1175714,16.8753205 22.4051905,17.2570864 C22.0684286,17.4376727 21.7268095,17.6135068 21.3884286,17.7925091 C21.3528095,17.8099341 21.3171905,17.825775 21.2783334,17.8447841 C21.2491905,17.8051818 21.2232857,17.7703318 21.200619,17.7338977 C19.9539524,15.7822977 18.7072857,13.8322818 17.4654762,11.8775136 C17.4088095,11.7903886 17.3537619,11.7713795 17.253381,11.7793 C16.0569048,11.8822659 15.0336666,11.5163409 14.2176666,10.6530114 C13.4696666,9.86255 13.1490952,8.91051136 13.2931905,7.84441818 C13.479381,6.45358636 14.2549048,5.46828182 15.5922381,4.96295682 C16.8745238,4.47980909 18.0839524,4.68890909 19.159,5.52055682 C19.8794762,6.07657273 20.3101429,6.81951136 20.4477619,7.71293864 C20.6145238,8.80279318 20.3230952,9.76592045 19.5880476,10.5991523 C19.5265238,10.6704364 19.5637619,10.7100386 19.5977619,10.7623136 C20.350619,11.9408773 21.1034762,13.1194409 21.8547143,14.2995886 C21.9324286,14.4183955 22.016619,14.5356182 22.083,14.6607614 C22.1315714,14.7510545 22.1801429,14.7478864 22.2724286,14.7193727 C22.7387143,14.5783886 23.203381,14.4183955 23.679381,14.3201818 C24.5730952,14.1348432 25.4781429,14.1110818 26.3864286,14.2267205 C28.1252857,14.4469091 29.6504286,15.1280682 30.9521429,16.2717818 C32.2975714,17.4535136 33.1912857,18.9108773 33.5555714,20.6438727 C34.1335714,23.3859341 33.4762381,25.8365227 31.5851905,27.9386114 C30.3482381,29.3151864 28.7777619,30.162675 26.9385238,30.5222636 C25.9865238,30.7076023 25.0264286,30.7266114 24.0630952,30.580875 C22.083,30.2814818 20.418619,29.4023114 19.0634762,27.9592045 C19.0618571,27.9560364 19.058619,27.9528682 19.0521429,27.9417795" id="Fill-4" fill="#7483BE"></path>
                    <path d="M9.64320951,22.4226484 C9.64806664,21.7795075 9.10568574,21.2440848 8.44511426,21.2393325 C7.7894,21.2345802 7.24054286,21.7652507 7.23568571,22.4115598 C7.23082857,23.0531166 7.77320951,23.5901234 8.43378098,23.5948757 C9.08949525,23.599628 9.63835238,23.0689575 9.64320951,22.4226484 M11.3254,14.4847689 C7.73759049,11.3910393 7.59511429,6.28551432 10.3539714,3.01911886 C13.1047334,-0.239356136 17.9294952,-0.983878864 21.5594,1.39384159 C25.1828286,3.76680977 25.9794,7.97415523 24.8347334,10.9902643 C24.0786381,10.7463143 23.3241619,10.5007802 22.5615905,10.253662 C22.6166381,10.061987 22.6749238,9.87981659 22.7218762,9.69447795 C23.533019,6.53738477 21.5642571,3.32801659 18.3358762,2.5423075 C15.2386381,1.78828023 12.0879714,3.51652341 11.1278762,6.50253477 C10.8769238,7.27873932 10.7959714,8.07553705 10.8914952,8.88817568 C11.1019714,10.652853 11.9552095,12.046853 13.4220666,13.0876007 C13.7604476,13.3267984 14.1020666,13.5596598 14.4469238,13.7988575 C14.2704476,14.1235961 14.0955905,14.4419984 13.9223524,14.7588166 C12.9865429,16.4632984 12.0523524,18.1693643 11.1149238,19.872262 C11.0712095,19.9498825 11.0760666,19.9958211 11.1359714,20.063937 C11.8774952,20.8971689 12.1915905,21.8650484 12.0054,22.956487 C11.7625429,24.3821689 10.919019,25.3579689 9.51530475,25.7856734 C8.07759049,26.2244666 6.79692381,25.8696302 5.76397143,24.7876961 C5.00787619,23.9972348 4.71644762,23.0341075 4.85406666,21.961678 C5.0386381,20.5027302 6.11206666,19.3415916 7.5854,18.9772507 C7.98692377,18.877453 8.39492377,18.8536916 8.80616189,18.896462 C8.87254287,18.9027984 8.91301902,18.8980461 8.94863811,18.8315143 C9.73063811,17.4010802 10.5142571,15.9738143 11.2962571,14.5449643 C11.3059714,14.5275393 11.3140666,14.5101143 11.3254,14.4847689" id="Fill-6" fill="#29B899"></path>
                </g>
            </g>
        </g>
    </g>
</svg>
