<svg width="31" height="29" viewBox="0 0 31 29" fill="none" xmlns="http://www.w3.org/2000/svg">
<path fill-rule="evenodd" clip-rule="evenodd" d="M12.5 14C16.0899 14 19 11.0899 19 7.5C19 3.91015 16.0899 1 12.5 1C8.91015 1 6 3.91015 6 7.5C6 11.0899 8.91015 14 12.5 14Z" fill="#7383BF" stroke="#7383BF" stroke-width="1.5"/>
<path fill-rule="evenodd" clip-rule="evenodd" d="M24 28C24 20.7661 18.8513 17 12.5 17C6.14873 17 1 20.7661 1 28C6.14873 28 20.1667 28 24 28Z" fill="#7383BF" stroke="#7383BF" stroke-width="1.5"/>
<path fill-rule="evenodd" clip-rule="evenodd" d="M25.5421 19.0373C24.8767 19.4666 24 18.9889 24 18.197V11.803C24 11.0111 24.8767 10.5334 25.5421 10.9627L30.4975 14.1597C31.108 14.5535 31.108 15.4464 30.4975 15.8403L25.5421 19.0373Z" fill="#26B99A"/>
</svg>
