<svg width="31" height="31" viewBox="0 0 31 31" fill="none" xmlns="http://www.w3.org/2000/svg">
<path d="M27.2041 4.13778H17.6071C16.998 4.13778 16.5 4.63686 16.5 5.24739C16.5 5.85791 16.998 6.35699 17.6071 6.35699H27.2041L24.7875 8.77988C24.3572 9.21113 24.3572 9.91857 24.7875 10.3498C25.2178 10.7811 25.9237 10.7811 26.354 10.3498L30.486 6.21018C30.5137 6.18238 30.5395 6.15345 30.5636 6.12355C30.5984 6.09628 30.632 6.06663 30.6641 6.03461C31.0944 5.60175 31.0944 4.89593 30.6641 4.46307L26.532 0.323434C26.1017 -0.107811 25.3959 -0.107811 24.9656 0.323434C24.5353 0.75468 24.5353 1.46212 24.9656 1.89336L27.2041 4.13778Z" fill="#26B99A"/>
<path d="M28.3333 21.8333C26.25 21.8333 24.25 21.5 22.3833 20.8833C21.8 20.7 21.15 20.8333 20.6833 21.2833L17.0167 24.95C12.3 22.55 8.43333 18.7 6.03333 13.9667L9.7 10.2833C10.1667 9.85 10.3 9.2 10.1167 8.61667C9.5 6.75 9.16667 4.75 9.16667 2.66667C9.16667 1.75 8.41667 1 7.5 1H1.66667C0.75 1 0 1.75 0 2.66667C0 18.3167 12.6833 31 28.3333 31C29.25 31 30 30.25 30 29.3333V23.5C30 22.5833 29.25 21.8333 28.3333 21.8333Z" fill="#7383BF"/>
</svg>
