<svg width="30" height="27" viewBox="0 0 30 27" fill="none" xmlns="http://www.w3.org/2000/svg">
<path fill-rule="evenodd" clip-rule="evenodd" d="M2.72727 26.25H27.2727C28.7727 26.25 30 25 30 23.4722V2.77778C30 1.25 28.7727 0 27.2727 0H2.72727C1.22727 0 0 1.25 0 2.77778V23.4722C0 25 1.22727 26.25 2.72727 26.25ZM2.5 7.5H27.5V23.75H2.5V7.5Z" fill="#29B899"/>
<path fill-rule="evenodd" clip-rule="evenodd" d="M10.719 18.3398H7.7832L7.27051 20H4.98169L8.24097 11.1133H10.2551L13.5388 20H11.2378L10.719 18.3398ZM8.2959 16.6858H10.2063L9.24805 13.6035L8.2959 16.6858ZM16.1406 16.9849V20H13.9983V11.1133H17.5444C18.224 11.1133 18.8252 11.2384 19.348 11.4886C19.8709 11.7389 20.2758 12.0949 20.5626 12.5568C20.8495 13.0186 20.9929 13.5425 20.9929 14.1284C20.9929 14.9951 20.6827 15.6879 20.0621 16.2067C19.4416 16.7255 18.5902 16.9849 17.5078 16.9849H16.1406ZM16.1406 15.3308H17.5444C17.9595 15.3308 18.2758 15.2271 18.4935 15.0195C18.7112 14.812 18.8201 14.519 18.8201 14.1406C18.8201 13.7256 18.7082 13.394 18.4844 13.1458C18.2606 12.8975 17.9554 12.7714 17.5688 12.7673H16.1406V15.3308ZM24.2295 20H22.0933V11.1133H24.2295V20Z" fill="#7383BF"/>
</svg>
