<svg width="30" height="30" viewBox="0 0 30 30" fill="none" xmlns="http://www.w3.org/2000/svg">
<path d="M22.875 13.1562H16.9688V7.25C16.9688 6.55273 16.3535 5.9375 15.6562 5.9375H14.3438C13.6055 5.9375 13.0312 6.55273 13.0312 7.25V13.1562H7.125C6.38672 13.1562 5.8125 13.7715 5.8125 14.4688V15.7812C5.8125 16.5195 6.38672 17.0938 7.125 17.0938H13.0312V23C13.0312 23.7383 13.6055 24.3125 14.3438 24.3125H15.6562C16.3535 24.3125 16.9688 23.7383 16.9688 23V17.0938H22.875C23.5723 17.0938 24.1875 16.5195 24.1875 15.7812V14.4688C24.1875 13.7715 23.5723 13.1562 22.875 13.1562Z" fill="#26B99A"/>
</svg>
